<?xml version="1.0" standalone="no"?>
<!DOCTYPE svg PUBLIC "-//W3C//DTD SVG 1.1//EN"
  "http://www.w3.org/Graphics/SVG/1.1/DTD/svg11.dtd">
<svg version="1.1" xmlns="http://www.w3.org/2000/svg" xmlns:xlink="http://www.w3.org/1999/xlink" width="915" height="1131" viewBox="-32 -32.029508196721395 1144 1414.0590163934428" id="ccdiagram"><filter id="grayscale"><feColorMatrix type="matrix" values="0.3333 0.3333 0.3333 0 0 0.3333 0.3333 0.3333 0 0 0.3333 0.3333 0.3333 0 0 0 0 0 1 0"></feColorMatrix></filter><defs><style type="text/css">@import url('https://fonts.googleapis.com/css?family=Open+Sans:400,700|Inconsolata:400');</style></defs><g><g pointer-events="auto"></g><g pointer-events="auto"></g><g></g><g pointer-events="auto"></g><g></g><g pointer-events="auto"></g><g pointer-events="none"></g><g pointer-events="auto"><g><g cursor="cell"><line x1="383" y1="473" x2="641" y2="623" stroke="red" stroke-width="8" opacity="0"></line><line x1="383" y1="473" x2="641" y2="623" stroke="#000000" stroke-width="2" stroke-linecap="round"></line><polygon points="653 630, 637 608, 637 621, 626 628, 653 630" stroke-linejoin="round" fill="#000000" stroke="#000000" stroke-width="1"></polygon></g></g><g><g cursor="cell"><line x1="653" y1="833" x2="396" y2="833" stroke="red" stroke-width="8" opacity="0"></line><line x1="653" y1="833" x2="396" y2="833" stroke="#000000" stroke-width="2" stroke-linecap="round"></line><polygon points="383 833, 407 844, 400 833, 407 821, 383 833" stroke-linejoin="round" fill="#000000" stroke="#000000" stroke-width="1"></polygon></g></g><g><g cursor="cell"><line x1="653" y1="473" x2="396" y2="473" stroke="red" stroke-width="8" opacity="0"></line><line x1="653" y1="473" x2="396" y2="473" stroke="#000000" stroke-width="2" stroke-linecap="round"></line><polygon points="383 473, 407 484, 400 473, 407 461, 383 473" stroke-linejoin="round" fill="#000000" stroke="#000000" stroke-width="1"></polygon></g></g><g><g cursor="cell"><line x1="653" y1="338" x2="653" y2="459" stroke="red" stroke-width="8" opacity="0"></line><line x1="653" y1="338" x2="653" y2="459" stroke="#000000" stroke-width="2" stroke-linecap="round"></line><polygon points="653 473, 664 448, 653 455, 641 448, 653 473" stroke-linejoin="round" fill="#000000" stroke="#000000" stroke-width="1"></polygon></g></g><g><g cursor="cell"><line x1="653" y1="1193" x2="396" y2="1193" stroke="red" stroke-width="8" opacity="0"></line><line x1="653" y1="1193" x2="396" y2="1193" stroke="#000000" stroke-width="2" stroke-linecap="round"></line><polygon points="383 1193, 407 1204, 400 1193, 407 1181, 383 1193" stroke-linejoin="round" fill="#000000" stroke="#000000" stroke-width="1"></polygon></g></g><g><g cursor="cell"><line x1="383" y1="833" x2="641" y2="1005" stroke="red" stroke-width="8" opacity="0"></line><line x1="383" y1="833" x2="641" y2="1005" stroke="#000000" stroke-width="2" stroke-linecap="round"></line><polygon points="653 1013, 638 989, 638 1003, 626 1008, 653 1013" stroke-linejoin="round" fill="#000000" stroke="#000000" stroke-width="1"></polygon></g></g><g><g cursor="cell"><line x1="653" y1="1193" x2="391" y2="843" stroke="red" stroke-width="8" opacity="0"></line><line x1="653" y1="1193" x2="391" y2="843" stroke="#000000" stroke-width="2" stroke-linecap="round"></line><polygon points="383 833, 388 859, 393 847, 406 845, 383 833" stroke-linejoin="round" fill="#000000" stroke="#000000" stroke-width="1"></polygon></g></g><g><g cursor="cell"><line x1="653" y1="630" x2="653" y2="819" stroke="red" stroke-width="8" opacity="0"></line><line x1="653" y1="630" x2="653" y2="819" stroke="#000000" stroke-width="2" stroke-linecap="round"></line><polygon points="653 833, 664 808, 653 815, 641 808, 653 833" stroke-linejoin="round" fill="#000000" stroke="#000000" stroke-width="1"></polygon></g></g><g><g cursor="cell"><line x1="594" y1="293" x2="396" y2="293" stroke="red" stroke-width="8" opacity="0"></line><line x1="594" y1="293" x2="396" y2="293" stroke="#000000" stroke-width="2" stroke-linecap="round"></line><polygon points="608 293, 583 281, 590 293, 583 304, 608 293" stroke-linejoin="round" fill="#000000" stroke="#000000" stroke-width="1"></polygon><polygon points="383 293, 407 304, 400 293, 407 281, 383 293" stroke-linejoin="round" fill="#000000" stroke="#000000" stroke-width="1"></polygon></g></g><g><g cursor="cell"><line x1="653" y1="90" x2="653" y2="234" stroke="red" stroke-width="8" opacity="0"></line><line x1="653" y1="90" x2="653" y2="234" stroke="#000000" stroke-width="2" stroke-linecap="round"></line><polygon points="653 248, 664 223, 653 230, 641 223, 653 248" stroke-linejoin="round" fill="#000000" stroke="#000000" stroke-width="1"></polygon></g></g><g><g cursor="cell"><line x1="653" y1="1013" x2="653" y2="1179" stroke="red" stroke-width="8" opacity="0"></line><line x1="653" y1="1013" x2="653" y2="1179" stroke="#000000" stroke-width="2" stroke-linecap="round"></line><polygon points="653 1193, 664 1168, 653 1175, 641 1168, 653 1193" stroke-linejoin="round" fill="#000000" stroke="#000000" stroke-width="1"></polygon></g></g></g><g pointer-events="auto"><g opacity="1"><g id="f9096827-c75c-4c07-8b64-cd3f2c12c255" transform="translate(0 0)"><svg x="608" y="248" height="90" id="svg15" width="90" version="1.1"><defs id="defs4"></defs><g id="Reference" fill-opacity="1" transform="scale(1.2)"><path id="Orange_Light_BG" d="M0 0h75v75H0z" fill="#d86613" data-name="Orange Light BG"></path><g id="Product_Icon" fill="#ffffff" data-name="Product Icon"><path class="cls-2" id="path9" d="M60.5 62.5H48.18a1 1 0 0 1-.9-.57L29.86 25.5h-7.37a1 1 0 0 1-1-1v-11a1 1 0 0 1 1-1h15.4a1 1 0 0 1 .9.57L56.13 49.5h4.37a1 1 0 0 1 1 1v11a1 1 0 0 1-1 1zm-11.69-2H59.5v-9h-4a1 1 0 0 1-.9-.57L37.26 14.5H23.5v9h7a1 1 0 0 1 .9.57z" fill="#ffffff" fill-opacity="1"></path><path class="cls-2" id="path11" d="M27.48 62.5h-13a1 1 0 0 1-.85-.47 1 1 0 0 1-.05-1l13.6-28.41a1 1 0 0 1 .9-.57 1 1 0 0 1 .9.56L35.49 46a1 1 0 0 1 0 .87l-7.1 15a1 1 0 0 1-.91.63zm-11.4-2h10.77l6.63-14-5.39-11.15z" fill="#ffffff" fill-opacity="1"></path></g></g></svg></g></g></g><g pointer-events="auto"></g><g pointer-events="auto"><g opacity="1"><g id="e99abfa7-4c58-4258-b5f4-4f44e211c60f" transform="translate(0 0)"><svg x="-1125" y="1508" overflow="visible"><g transform="scale(1.2074767078498865) "><circle cx="0" cy="0" fill="transparent" r="25"></circle><svg width="50" height="50" x="-25" y="-25" style=""><svg xmlns="http://www.w3.org/2000/svg" viewBox="0 0 50 50"><g id="Working" fill="#cd2264"><path d="M14.69 44.75H5.31a1 1 0 0 1-1-1V23.12a1 1 0 0 1 1-1h9.38a1 1 0 0 1 1 1v20.63a1 1 0 0 1-1 1zm-8.38-2h7.38V24.12H6.31zM29.69 44.75h-9.38a1 1 0 0 1-1-1V27.81a1 1 0 0 1 1-1h9.38a1 1 0 0 1 1 1v15.94a1 1 0 0 1-1 1zm-8.38-2h7.38V28.81h-7.38zM1.56 46.5h46.87v2H1.56zM45.15 16.62h-10.3a2.41 2.41 0 0 1-2.41-2.41V3.92a2.41 2.41 0 0 1 2.41-2.42h10.3a2.41 2.41 0 0 1 2.41 2.42v10.29a2.41 2.41 0 0 1-2.41 2.41zM34.85 3.5a.41.41 0 0 0-.41.42v10.29a.41.41 0 0 0 .41.41h10.3a.41.41 0 0 0 .41-.41V3.92a.41.41 0 0 0-.41-.42zM44.69 44.75h-9.38a1 1 0 0 1-1-1V19.38a1 1 0 0 1 1-1h9.38a1 1 0 0 1 1 1v24.37a1 1 0 0 1-1 1zm-8.38-2h7.38V20.38h-7.38z"></path></g></svg></svg></g></svg></g></g><g opacity="1"><g id="d5f8c672-326e-46b7-a09e-d622077c5bf0" transform="translate(0 0)"><svg x="-1125" y="1418" overflow="visible"><g transform="scale(1.2074767078498865) "><circle cx="0" cy="0" fill="transparent" r="25"></circle><svg width="50" height="50" x="-25" y="-25" style=""><svg xmlns="http://www.w3.org/2000/svg" viewBox="0 0 50 50"><g id="Working" fill="#cd2264"><path d="M14.69 44.75H5.31a1 1 0 0 1-1-1V23.12a1 1 0 0 1 1-1h9.38a1 1 0 0 1 1 1v20.63a1 1 0 0 1-1 1zm-8.38-2h7.38V24.12H6.31zM29.69 44.75h-9.38a1 1 0 0 1-1-1V27.81a1 1 0 0 1 1-1h9.38a1 1 0 0 1 1 1v15.94a1 1 0 0 1-1 1zm-8.38-2h7.38V28.81h-7.38zM1.56 46.5h46.87v2H1.56zM45.15 16.62h-10.3a2.41 2.41 0 0 1-2.41-2.41V3.92a2.41 2.41 0 0 1 2.41-2.42h10.3a2.41 2.41 0 0 1 2.41 2.42v10.29a2.41 2.41 0 0 1-2.41 2.41zM34.85 3.5a.41.41 0 0 0-.41.42v10.29a.41.41 0 0 0 .41.41h10.3a.41.41 0 0 0 .41-.41V3.92a.41.41 0 0 0-.41-.42zM44.69 44.75h-9.38a1 1 0 0 1-1-1V19.38a1 1 0 0 1 1-1h9.38a1 1 0 0 1 1 1v24.37a1 1 0 0 1-1 1zm-8.38-2h7.38V20.38h-7.38z"></path></g></svg></svg></g></svg></g></g><g opacity="1"><g id="e411d35e-f73e-4fc2-b0ec-58433753e22b" transform="translate(0 0)"><svg x="383" y="293" overflow="visible"><g transform="scale(2.1836601342771385) "><circle cx="0" cy="0" fill="#000000" r="23"></circle><svg width="31" height="32" x="-15.5" y="-16" style="fill: rgb(255, 255, 255);"><svg xmlns="http://www.w3.org/2000/svg" width="31" height="32" viewBox="0 0 31 32"><path d="M27.946 2.286a2.763 2.763 0 0 1 2.768 2.786v9.268c0 8.554-6.839 15.375-15.339 15.375A15.307 15.307 0 0 1 0 14.34V5.072c0-1.518 1.268-2.786 2.786-2.786h25.161zm-12.571 19c.536 0 1.071-.214 1.464-.589l7.214-6.929c.411-.393.661-.946.661-1.518a2.11 2.11 0 0 0-3.571-1.518l-5.768 5.536-5.768-5.536a2.102 2.102 0 0 0-1.446-.589 2.11 2.11 0 0 0-1.464 3.625l7.232 6.929a2.07 2.07 0 0 0 1.446.589z"></path></svg></svg></g></svg></g></g><g opacity="1"><g id="e19cd518-bca2-46ca-aa6c-ab955d1a00e9" transform="translate(0 0)"><svg x="653" y="473" overflow="visible"><g transform="scale(1.2074767078498865) "><circle cx="0" cy="0" fill="transparent" r="37.5"></circle><svg width="75" height="75" x="-37.5" y="-37.5" style=""><svg xmlns="http://www.w3.org/2000/svg" viewBox="0 0 75 75"><defs><linearGradient id="OrangeGradient" x1="-1788.05" y1="692.67" x2="-1788.05" y2="842.67" gradientTransform="rotate(-135 -1026.5 24.5)" gradientUnits="userSpaceOnUse"><stop offset="0" stop-color="#c8511b"></stop><stop offset="1" stop-color="#f90"></stop></linearGradient></defs><g id="Reference"><path id="Orange_Gradient" data-name="Orange Gradient" fill="url(#OrangeGradient)" d="M0 0h75v75H0z"></path><g id="Icon_Test" data-name="Icon Test" fill="#fff"><path d="M60.5 62.5H48.18a1 1 0 0 1-.9-.57L29.86 25.5h-7.37a1 1 0 0 1-1-1v-11a1 1 0 0 1 1-1h15.4a1 1 0 0 1 .9.57L56.13 49.5h4.37a1 1 0 0 1 1 1v11a1 1 0 0 1-1 1zm-11.69-2H59.5v-9h-4a1 1 0 0 1-.9-.57L37.26 14.5H23.5v9h7a1 1 0 0 1 .9.57z"></path><path d="M27.48 62.5h-13a1 1 0 0 1-.85-.47 1 1 0 0 1-.05-1l13.6-28.41a1 1 0 0 1 .9-.57 1 1 0 0 1 .9.56L35.49 46a1 1 0 0 1 0 .87l-7.1 15a1 1 0 0 1-.91.63zm-11.4-2h10.77l6.63-14-5.39-11.15z"></path></g></g></svg></svg></g></svg></g></g><g opacity="1"><g id="9f4ad7e7-aeab-42f6-83ed-3b631b8f8ea4" transform="translate(0 0)"><svg x="-855" y="1328" overflow="visible"><g transform="scale(1.3975424859373686) "><circle cx="0" cy="0" fill="transparent" r="40"></circle><svg width="100" height="100" x="-50" y="-50" style=""><svg id="Layer_1" data-name="Layer 1" xmlns="http://www.w3.org/2000/svg" width="100" height="100" viewBox="0 0 100 100"><g><path d="M50 25.06L76.5 29v2.32c0 3.45-11.87 6.23-26.51 6.23s-26.5-2.78-26.5-6.23V28.8z" fill="#8c3123"></path><path d="M50 41.8c11.07 0 20.55-1.59 24.52-3.85l1.3-2.2.53-2v2.48l-8.67 37c0 2.3-7.91 4.15-17.67 4.15s-17.66-1.85-17.66-4.15l-8.67-37V33.8l2 4.23C29.66 40.25 39.05 41.8 50 41.8z" fill="#8c3123"></path><path d="M50 22.58c14.64 0 26.51 2.79 26.51 6.22S64.63 35 50 35s-26.5-2.75-26.5-6.2 11.86-6.22 26.5-6.22z" fill="#e05243"></path><path d="M50 39.32c13.65 0 24.88-2.41 26.34-5.53l-8.67 37c0 2.3-7.91 4.15-17.67 4.15S32.33 73.1 32.33 70.8l-8.67-37c1.47 3.11 12.7 5.52 26.34 5.52z" fill="#e05243"></path></g></svg></svg></g></svg></g></g><g opacity="1"><g id="b48d43df-a6f8-46c5-bbe5-aaae72b33344" transform="translate(0 0)"><svg x="383" y="473" overflow="visible"><g transform="scale(1.3975424859373686) "><circle cx="0" cy="0" fill="transparent" r="40"></circle><svg width="100" height="100" x="-50" y="-50" style=""><svg id="Layer_1" data-name="Layer 1" xmlns="http://www.w3.org/2000/svg" width="100" height="100" viewBox="0 0 100 100"><g><path d="M50 25.06L76.5 29v2.32c0 3.45-11.87 6.23-26.51 6.23s-26.5-2.78-26.5-6.23V28.8z" fill="#8c3123"></path><path d="M50 41.8c11.07 0 20.55-1.59 24.52-3.85l1.3-2.2.53-2v2.48l-8.67 37c0 2.3-7.91 4.15-17.67 4.15s-17.66-1.85-17.66-4.15l-8.67-37V33.8l2 4.23C29.66 40.25 39.05 41.8 50 41.8z" fill="#8c3123"></path><path d="M50 22.58c14.64 0 26.51 2.79 26.51 6.22S64.63 35 50 35s-26.5-2.75-26.5-6.2 11.86-6.22 26.5-6.22z" fill="#e05243"></path><path d="M50 39.32c13.65 0 24.88-2.41 26.34-5.53l-8.67 37c0 2.3-7.91 4.15-17.67 4.15S32.33 73.1 32.33 70.8l-8.67-37c1.47 3.11 12.7 5.52 26.34 5.52z" fill="#e05243"></path><path fill="#fff" d="M43.76 42.85h11.48v11.4H43.76z"></path><ellipse cx="40.29" cy="63.9" rx="5.66" ry="5.62" fill="#fff"></ellipse><path fill="#fff" fill-rule="evenodd" d="M64.09 69.26H52.75l5.67-10.48 5.67 10.48z"></path></g></svg></svg></g></svg></g></g><g opacity="1"><g id="fb07075f-46e2-4af4-99bd-3a01da31e10d" transform="translate(0 0)"><svg x="653" y="630" overflow="visible"><g transform="scale(1.2074767078498865) "><circle cx="0" cy="0" fill="transparent" r="37.5"></circle><svg width="75" height="75" x="-37.5" y="-37.5" style=""><svg xmlns="http://www.w3.org/2000/svg" viewBox="0 0 75 75"><defs><linearGradient id="OrangeGradient" x1="-1788.05" y1="692.67" x2="-1788.05" y2="842.67" gradientTransform="rotate(-135 -1026.5 24.5)" gradientUnits="userSpaceOnUse"><stop offset="0" stop-color="#c8511b"></stop><stop offset="1" stop-color="#f90"></stop></linearGradient></defs><g id="Reference"><path id="Orange_Gradient" data-name="Orange Gradient" fill="url(#OrangeGradient)" d="M0 0h75v75H0z"></path><g id="Icon_Test" data-name="Icon Test" fill="#fff"><path d="M60.5 62.5H48.18a1 1 0 0 1-.9-.57L29.86 25.5h-7.37a1 1 0 0 1-1-1v-11a1 1 0 0 1 1-1h15.4a1 1 0 0 1 .9.57L56.13 49.5h4.37a1 1 0 0 1 1 1v11a1 1 0 0 1-1 1zm-11.69-2H59.5v-9h-4a1 1 0 0 1-.9-.57L37.26 14.5H23.5v9h7a1 1 0 0 1 .9.57z"></path><path d="M27.48 62.5h-13a1 1 0 0 1-.85-.47 1 1 0 0 1-.05-1l13.6-28.41a1 1 0 0 1 .9-.57 1 1 0 0 1 .9.56L35.49 46a1 1 0 0 1 0 .87l-7.1 15a1 1 0 0 1-.91.63zm-11.4-2h10.77l6.63-14-5.39-11.15z"></path></g></g></svg></svg></g></svg></g></g><g opacity="1"><g id="3de7c891-06ed-4972-b430-b70aec5d7116" transform="translate(0 0)"><svg x="653" y="833" overflow="visible"><g transform="scale(1.2074767078498865) "><circle cx="0" cy="0" fill="transparent" r="37.5"></circle><svg width="75" height="75" x="-37.5" y="-37.5" style=""><svg xmlns="http://www.w3.org/2000/svg" viewBox="0 0 75 75"><defs><linearGradient id="OrangeGradient" x1="-15.54" y1="90.54" x2="90.53" y2="-15.53" gradientUnits="userSpaceOnUse"><stop offset="0" stop-color="#c8511b"></stop><stop offset="1" stop-color="#f90"></stop></linearGradient></defs><g id="Reference"><path id="Orange_Gradient" data-name="Orange Gradient" fill="url(#OrangeGradient)" d="M0 0h75v75H0z"></path><g id="Icon_Test" data-name="Icon Test" fill="#fff"><path d="M24.79 36.41a1.64 1.64 0 0 0 .24.23 5.32 5.32 0 0 0 .47.36l.11.06a4.82 4.82 0 0 0 .5.27l.31.13H26.63l.25.11c.47.17 1 .37 1.58.55l.91.27.49.13a31 31 0 0 0 7.64.89 27.7 27.7 0 0 0 11.4-2.18 4.44 4.44 0 0 0 2.6-4V18.88a1.58 1.58 0 0 0-.9-1.42l-12.42-5.8a1.52 1.52 0 0 0-1.33 0l-12.45 5.8a1.58 1.58 0 0 0-.9 1.42v14.4a4.44 4.44 0 0 0 1.09 2.92 2 2 0 0 0 .2.21zm5.1.14l-.84-.25c-.54-.17-1-.35-1.41-.49l-.36-.15-.34-.16a3.41 3.41 0 0 1-.33-.17l-.25-.19-.13-.14a.3.3 0 0 0-.08-.08l-.08-.09a2.42 2.42 0 0 1-.59-1.59V20.08l11 5.15v12.24a27.82 27.82 0 0 1-6.15-.8zm18.2-1.06a24.89 24.89 0 0 1-9.6 2V25.42l11-5v12.8a2.42 2.42 0 0 1-1.4 2.27zM37.5 13.55l11.06 5.16-10.88 4.88-.08-.05-10.75-5z"></path><path d="M54.78 27.68l-.56 1.92c4.49 1.32 7.28 3.2 7.28 4.9 0 3.31-9.86 7-24 7s-24-3.69-24-7c0-1.7 2.79-3.58 7.28-4.9l-.56-1.92c-5.62 1.65-8.72 4.08-8.72 6.82 0 5.84 13.4 9 26 9s26-3.16 26-9c0-2.74-3.1-5.16-8.72-6.82zM54.72 46.64l-4.65-2a1.3 1.3 0 0 0-1.14 0l-4.75 2.05a1.22 1.22 0 0 0-.68 1.1v5.15L39.07 51a1.34 1.34 0 0 0-1.14 0l-4.46 1.93v-5.16a1.25 1.25 0 0 0-.74-1.13l-4.66-2a1.28 1.28 0 0 0-1.13 0l-4.76 2.05a1.22 1.22 0 0 0-.68 1.1v6.08a1.25 1.25 0 0 0 .74 1.13l4.65 2H27a1.33 1.33 0 0 0 .5.11A1 1 0 0 0 28 57l4.49-1.93v5.15a1.25 1.25 0 0 0 .74 1.12l4.64 2h.07a1.29 1.29 0 0 0 .54.12 1.1 1.1 0 0 0 .51-.12l4.77-2.05a1.24 1.24 0 0 0 .68-1.1v-5.12L48.88 57H49a1.46 1.46 0 0 0 .54.12A1.1 1.1 0 0 0 50 57l4.78-2a1.22 1.22 0 0 0 .68-1.1v-6.13a1.25 1.25 0 0 0-.74-1.13zm-5.24-.08l2.73 1.16-2.56 1.05L47 47.63zm-11 6.38l2.73 1.16-2.56 1L36 54zm-11-6.38l2.72 1.17-2.56 1-2.64-1.1zm-4 2.6l3 1.28v4.2l-3-1.29zm5 5.47v-4l3-1.23v4zm6 .9l3 1.29V61l-3-1.29zm5 5.48V57l3-1.24v4zm6-11.85l3 1.28v4.2l-3-1.29zm5 5.48v-4l3-1.24v4z"></path></g></g></svg></svg></g></svg></g></g><g opacity="1"><g id="ed40d641-c685-43c4-9043-f207192c4f9f" transform="translate(0 0)"><svg x="383" y="833" overflow="visible"><g transform="scale(1.3975424859373686) "><circle cx="0" cy="0" fill="transparent" r="40"></circle><svg width="100" height="100" x="-50" y="-50" style=""><svg id="Layer_1" data-name="Layer 1" xmlns="http://www.w3.org/2000/svg" width="100" height="100" viewBox="0 0 100 100"><g><path d="M50 25.06L76.5 29v2.32c0 3.45-11.87 6.23-26.51 6.23s-26.5-2.78-26.5-6.23V28.8z" fill="#8c3123"></path><path d="M50 41.8c11.07 0 20.55-1.59 24.52-3.85l1.3-2.2.53-2v2.48l-8.67 37c0 2.3-7.91 4.15-17.67 4.15s-17.66-1.85-17.66-4.15l-8.67-37V33.8l2 4.23C29.66 40.25 39.05 41.8 50 41.8z" fill="#8c3123"></path><path d="M50 22.58c14.64 0 26.51 2.79 26.51 6.22S64.63 35 50 35s-26.5-2.75-26.5-6.2 11.86-6.22 26.5-6.22z" fill="#e05243"></path><path d="M50 39.32c13.65 0 24.88-2.41 26.34-5.53l-8.67 37c0 2.3-7.91 4.15-17.67 4.15S32.33 73.1 32.33 70.8l-8.67-37c1.47 3.11 12.7 5.52 26.34 5.52z" fill="#e05243"></path><path fill="#fff" d="M43.76 42.85h11.48v11.4H43.76z"></path><ellipse cx="40.29" cy="63.9" rx="5.66" ry="5.62" fill="#fff"></ellipse><path fill="#fff" fill-rule="evenodd" d="M64.09 69.26H52.75l5.67-10.48 5.67 10.48z"></path></g></svg></svg></g></svg></g></g><g opacity="1"><g id="f21d27e0-01bf-4984-9458-dcf20d88c7c9" transform="translate(0 0)"><svg x="653" y="1013" overflow="visible"><g transform="scale(1.2074767078498865) "><circle cx="0" cy="0" fill="transparent" r="37.5"></circle><svg width="75" height="75" x="-37.5" y="-37.5" style=""><svg xmlns="http://www.w3.org/2000/svg" viewBox="0 0 75 75"><defs><linearGradient id="OrangeGradient" x1="-1788.05" y1="692.67" x2="-1788.05" y2="842.67" gradientTransform="rotate(-135 -1026.5 24.5)" gradientUnits="userSpaceOnUse"><stop offset="0" stop-color="#c8511b"></stop><stop offset="1" stop-color="#f90"></stop></linearGradient></defs><g id="Reference"><path id="Orange_Gradient" data-name="Orange Gradient" fill="url(#OrangeGradient)" d="M0 0h75v75H0z"></path><g id="Icon_Test" data-name="Icon Test" fill="#fff"><path d="M60.5 62.5H48.18a1 1 0 0 1-.9-.57L29.86 25.5h-7.37a1 1 0 0 1-1-1v-11a1 1 0 0 1 1-1h15.4a1 1 0 0 1 .9.57L56.13 49.5h4.37a1 1 0 0 1 1 1v11a1 1 0 0 1-1 1zm-11.69-2H59.5v-9h-4a1 1 0 0 1-.9-.57L37.26 14.5H23.5v9h7a1 1 0 0 1 .9.57z"></path><path d="M27.48 62.5h-13a1 1 0 0 1-.85-.47 1 1 0 0 1-.05-1l13.6-28.41a1 1 0 0 1 .9-.57 1 1 0 0 1 .9.56L35.49 46a1 1 0 0 1 0 .87l-7.1 15a1 1 0 0 1-.91.63zm-11.4-2h10.77l6.63-14-5.39-11.15z"></path></g></g></svg></svg></g></svg></g></g><g opacity="1"><g id="cf5bdd45-c191-4295-ad95-e6a2af2a118b" transform="translate(0 0)"><svg x="653" y="1193" overflow="visible"><g transform="scale(1.2074767078498865) "><circle cx="0" cy="0" fill="transparent" r="37.5"></circle><svg width="75" height="75" x="-37.5" y="-37.5" style=""><svg xmlns="http://www.w3.org/2000/svg" viewBox="0 0 75 75"><defs><linearGradient id="OrangeGradient" x1="-1788.05" y1="692.67" x2="-1788.05" y2="842.67" gradientTransform="rotate(-135 -1026.5 24.5)" gradientUnits="userSpaceOnUse"><stop offset="0" stop-color="#c8511b"></stop><stop offset="1" stop-color="#f90"></stop></linearGradient></defs><g id="Reference"><path id="Orange_Gradient" data-name="Orange Gradient" fill="url(#OrangeGradient)" d="M0 0h75v75H0z"></path><g id="Icon_Test" data-name="Icon Test" fill="#fff"><path d="M60.5 62.5H48.18a1 1 0 0 1-.9-.57L29.86 25.5h-7.37a1 1 0 0 1-1-1v-11a1 1 0 0 1 1-1h15.4a1 1 0 0 1 .9.57L56.13 49.5h4.37a1 1 0 0 1 1 1v11a1 1 0 0 1-1 1zm-11.69-2H59.5v-9h-4a1 1 0 0 1-.9-.57L37.26 14.5H23.5v9h7a1 1 0 0 1 .9.57z"></path><path d="M27.48 62.5h-13a1 1 0 0 1-.85-.47 1 1 0 0 1-.05-1l13.6-28.41a1 1 0 0 1 .9-.57 1 1 0 0 1 .9.56L35.49 46a1 1 0 0 1 0 .87l-7.1 15a1 1 0 0 1-.91.63zm-11.4-2h10.77l6.63-14-5.39-11.15z"></path></g></g></svg></svg></g></svg></g></g><g opacity="1"><g id="4b53605b-73a3-4c1f-b8b4-c164582b557f" transform="translate(0 0)"><svg x="383" y="1193" overflow="visible"><g transform="scale(1.3975424859373686) "><circle cx="0" cy="0" fill="transparent" r="40"></circle><svg width="100" height="100" x="-50" y="-50" style=""><svg id="Layer_1" data-name="Layer 1" xmlns="http://www.w3.org/2000/svg" width="100" height="100" viewBox="0 0 100 100"><defs><clipPath id="clip-path"><path d="M86 58.68v18.39H22.87V58.68z" fill="#876929"></path></clipPath><clipPath id="clip-path-2"><path d="M29.9 33.41v2.36z" fill="#d9a741"></path></clipPath></defs><g><g><path d="M86 58.68v18.39H22.87V58.68z" fill="#876929"></path><g clip-path="url(#clip-path)"><g style="isolation:isolate"><path d="M86 58.68v18.39H22.87V58.68H86" fill="#876929"></path></g></g></g><path d="M86 34.84v39.87H22.87v-24.5a15.35 15.35 0 0 0 3 .29 15.08 15.08 0 0 0 11.52-5.32L54 56z" fill="#d9a741"></path><path d="M38.52 40.94v2.36L54 53.2l29.54-19.53v-2.36z" fill="#876929"></path><path d="M40.84 31.31h42.7L54 50.83l-15.5-9.89a14.86 14.86 0 0 0 2.41-8.09 12.9 12.9 0 0 0-.07-1.54z" fill="#d9a741"></path><g style="isolation:isolate"><g style="isolation:isolate"><path d="M29.9 33.41v2.36z" fill="#d9a741"></path><g clip-path="url(#clip-path-2)"><g style="isolation:isolate"><path d="M29.9 33.41v3.01-2.36-.65" fill="#d9a741"></path></g></g></g><path d="M36.49 28.38A11.92 11.92 0 0 1 37 38a7.19 7.19 0 0 1-3.53 4.07 3.59 3.59 0 0 1-1.78.44 4.78 4.78 0 0 1-3.94-2.06c-.12-.18-.23-.35-.39-.57a4.23 4.23 0 0 1-3.51 1.54 3 3 0 0 1-3.19-3.3 3.6 3.6 0 0 1 2.27-3.45 15 15 0 0 1 4-.73v-.28a2.73 2.73 0 0 0-.26-1.53 1.45 1.45 0 0 0-1.21-.55 1.62 1.62 0 0 0-1.71 1.27.44.44 0 0 1-.37.38L21.31 33a.38.38 0 0 1-.32-.44c.48-2.49 2.73-3.24 4.77-3.24A4.85 4.85 0 0 1 29 30.43c1 .95.93 2.24.93 3.63v3.3a2.83 2.83 0 0 0 .78 1.93 1.35 1.35 0 0 0 .82.28c1 0 2.14-1 2.76-2.58a9.27 9.27 0 0 0-.18-7.31c-1.45-2.7-4.88-4.22-8.24-4.22a9.12 9.12 0 0 0-5.37 1.6 10.43 10.43 0 0 0-2.53 14.07 10.27 10.27 0 0 0 8.75 4.54 10.94 10.94 0 0 0 5.6-1.52.89.89 0 0 1 .47-.13.91.91 0 0 1 .79.46.89.89 0 0 1-.36 1.22 12.48 12.48 0 0 1-6.69 1.87 12.23 12.23 0 0 1-10.32-5.26 12.64 12.64 0 0 1 2.86-17.2A11.34 11.34 0 0 1 26 22.93a13 13 0 0 1 2.43.23 11 11 0 0 1 8.06 5.22zm-10 10a4.13 4.13 0 0 0 .4-2.24v-.45c-1.54 0-3.17.32-3.17 2.12 0 .92.47 1.54 1.29 1.54a1.71 1.71 0 0 0 1.47-1" fill="#d9a741"></path></g></g></svg></svg></g></svg></g></g><g opacity="1"><g id="98845e8f-6947-4cd4-9564-26d2b0991687" transform="translate(0 0)"><svg x="-855" y="1238" overflow="visible"><g transform="scale(1.3975424859373686) "><circle cx="0" cy="0" fill="transparent" r="40"></circle><svg width="100" height="100" x="-50" y="-50" style=""><svg id="Layer_1" data-name="Layer 1" xmlns="http://www.w3.org/2000/svg" width="100" height="100" viewBox="0 0 100 100"><g><path fill="#4b612c" d="M27.7 50.04h10.71v26.44H27.7zM44.62 55.19h10.71v21.29H44.62z"></path><path transform="rotate(90 49.975 83.505)" fill="#4b612c" d="M47.14 59.28h5.66v48.45h-5.66z"></path><path d="M61.54 46.86v29.62h10.71V46.86a11.2 11.2 0 0 1-10.71 0z" fill="#4b612c"></path><path fill="#759c3e" d="M27.7 47.56h10.71V74H27.7zM44.62 52.71h10.71V74H44.62z"></path><path transform="rotate(90 49.975 81.025)" fill="#759c3e" d="M47.14 56.8h5.66v48.45h-5.66z"></path><path fill="#759c3e" d="M61.54 41.67h10.71v32.34H61.54z"></path><rect x="55.76" y="16.56" width="22.28" height="22.28" rx="3" ry="3" fill="#4b612c"></rect><rect x="55.76" y="14.04" width="22.28" height="22.28" rx="3" ry="3" fill="#759c3e"></rect></g></svg></svg></g></svg></g></g><g opacity="1"><g id="cbdc3baa-9886-4d72-abd7-29daa53acbbb" transform="translate(0 0)"><svg x="653" y="90" overflow="visible"><g transform="scale(1.3975424859373686) "><circle cx="0" cy="0" fill="transparent" r="40"></circle><svg width="100" height="100" x="-50" y="-50" style=""><svg id="Layer_1" data-name="Layer 1" xmlns="http://www.w3.org/2000/svg" width="100" height="100" viewBox="0 0 100 100"><g><g fill="#4b612c"><circle cx="66.9" cy="30.64" r="13"></circle><path d="M66.9 45.14a14.5 14.5 0 1 1 14.5-14.5 14.52 14.52 0 0 1-14.5 14.5zm0-26a11.5 11.5 0 1 0 11.5 11.5 11.51 11.51 0 0 0-11.5-11.5z"></path></g><g><circle cx="66.9" cy="28.16" r="13" fill="#fff"></circle><path d="M66.9 42.66a14.5 14.5 0 1 1 14.5-14.5 14.52 14.52 0 0 1-14.5 14.5zm0-26a11.5 11.5 0 1 0 11.5 11.5 11.51 11.51 0 0 0-11.5-11.5z" fill="#4f4f4f"></path></g><path fill="#4f4f4f" d="M60.88 27.66h7.01v3h-7.01z"></path><path fill="#4f4f4f" d="M66.4 19.1h3v11.56h-3z"></path><path fill="#4b612c" d="M27.7 50.04h10.71v26.44H27.7zM44.62 55.19h10.71v21.29H44.62z"></path><path transform="rotate(90 49.975 83.505)" fill="#4b612c" d="M47.14 59.28h5.66v48.45h-5.66z"></path><path d="M61.54 46.86v29.62h10.71V46.86a11.2 11.2 0 0 1-10.71 0z" fill="#4b612c"></path><path fill="#759c3e" d="M27.7 47.56h10.71V74H27.7zM44.62 52.71h10.71V74H44.62z"></path><path transform="rotate(90 49.975 81.025)" fill="#759c3e" d="M47.14 56.8h5.66v48.45h-5.66z"></path><path d="M61.54 44.38V74h10.71V44.38a11.2 11.2 0 0 1-10.71 0z" fill="#759c3e"></path></g></svg></svg></g></svg></g></g></g><g pointer-events="auto"><g opacity="1"><g id="e756aab6-6d53-4823-b54a-1b2fe944df1b"><svg x="720" y="248" overflow="visible"><text stroke="#ffffff" stroke-width="4" font-family="Open Sans" y="36.5" font-size="25pt" fill="#f5b720" font-weight="bold" transform="" xml:space="preserve"><tspan x="8" dy="0">Lambda</tspan><tspan x="8" dy="1.1em">reader</tspan></text><text font-family="Open Sans" y="36.5" font-size="25pt" fill="#f5b720" font-weight="bold" transform="" xml:space="preserve"><tspan x="8" dy="0">Lambda</tspan><tspan x="8" dy="1.1em">reader</tspan></text></svg></g></g><g opacity="1"><g id="8c4490d3-cb3d-4fd2-89ed-4ec9736d7ae3"><svg x="180" y="248" overflow="visible"><text stroke="#ffffff" stroke-width="4" font-family="Open Sans" y="36.5" font-size="25pt" fill="#f5b720" font-weight="bold" transform="" xml:space="preserve"><tspan x="8" dy="0">Pocket</tspan><tspan x="8" dy="1.1em">/get API</tspan></text><text font-family="Open Sans" y="36.5" font-size="25pt" fill="#f5b720" font-weight="bold" transform="" xml:space="preserve"><tspan x="8" dy="0">Pocket</tspan><tspan x="8" dy="1.1em">/get API</tspan></text></svg></g></g><g opacity="1"><g id="083c878c-c0b3-4de2-9520-4ca3b4b07d13"><svg x="720" y="428" overflow="visible"><text stroke="#ffffff" stroke-width="4" font-family="Open Sans" y="36.5" font-size="25pt" fill="#f5b720" font-weight="bold" transform="" xml:space="preserve"><tspan x="8" dy="0">Lambda</tspan><tspan x="8" dy="1.1em">create_epub</tspan></text><text font-family="Open Sans" y="36.5" font-size="25pt" fill="#f5b720" font-weight="bold" transform="" xml:space="preserve"><tspan x="8" dy="0">Lambda</tspan><tspan x="8" dy="1.1em">create_epub</tspan></text></svg></g></g><g opacity="1"><g id="3856771d-daea-43a8-b9a6-966eb6c87e13"><svg x="158" y="428" overflow="visible"><text stroke="#ffffff" stroke-width="4" font-family="Open Sans" y="36.5" font-size="25pt" fill="#f5b720" font-weight="bold" transform="" xml:space="preserve"><tspan x="8" dy="0">epub</tspan><tspan x="8" dy="1.1em">S3 bucket</tspan></text><text font-family="Open Sans" y="36.5" font-size="25pt" fill="#f5b720" font-weight="bold" transform="" xml:space="preserve"><tspan x="8" dy="0">epub</tspan><tspan x="8" dy="1.1em">S3 bucket</tspan></text></svg></g></g><g opacity="1"><g id="1b7f577d-9b1d-404b-9bc9-e77a3f0db6d2"><svg x="720" y="585" overflow="visible"><text stroke="#ffffff" stroke-width="4" font-family="Open Sans" y="36.5" font-size="25pt" fill="#f5b720" font-weight="bold" transform="" xml:space="preserve"><tspan x="8" dy="0">Lambda</tspan><tspan x="8" dy="1.1em">trigger_ecs_task</tspan></text><text font-family="Open Sans" y="36.5" font-size="25pt" fill="#f5b720" font-weight="bold" transform="" xml:space="preserve"><tspan x="8" dy="0">Lambda</tspan><tspan x="8" dy="1.1em">trigger_ecs_task</tspan></text></svg></g></g><g opacity="1"><g id="899ad73f-a8ea-4567-bb63-06029b7d8aa2"><svg x="720" y="765" overflow="visible"><text stroke="#ffffff" stroke-width="4" font-family="Open Sans" y="36.5" font-size="25pt" fill="#f5b720" font-weight="bold" transform="" xml:space="preserve"><tspan x="8" dy="0">Fargate task</tspan><tspan x="8" dy="1.1em">(Docker)</tspan><tspan x="8" dy="1.1em">create_mobi</tspan></text><text font-family="Open Sans" y="36.5" font-size="25pt" fill="#f5b720" font-weight="bold" transform="" xml:space="preserve"><tspan x="8" dy="0">Fargate task</tspan><tspan x="8" dy="1.1em">(Docker)</tspan><tspan x="8" dy="1.1em">create_mobi</tspan></text></svg></g></g><g opacity="1"><g id="97ecb9b9-00c4-4b89-b8d6-cffc6b59cdaa"><svg x="158" y="788" overflow="visible"><text stroke="#ffffff" stroke-width="4" font-family="Open Sans" y="36.5" font-size="25pt" fill="#f5b720" font-weight="bold" transform="" xml:space="preserve"><tspan x="8" dy="0">mobi</tspan><tspan x="8" dy="1.1em">S3 bucket</tspan></text><text font-family="Open Sans" y="36.5" font-size="25pt" fill="#f5b720" font-weight="bold" transform="" xml:space="preserve"><tspan x="8" dy="0">mobi</tspan><tspan x="8" dy="1.1em">S3 bucket</tspan></text></svg></g></g><g opacity="1"><g id="eba6b8c7-a8bb-40ed-810b-9a123d254aec"><svg x="720" y="990" overflow="visible"><text stroke="#ffffff" stroke-width="4" font-family="Open Sans" y="36.5" font-size="25pt" fill="#f5b720" font-weight="bold" transform="" xml:space="preserve"><tspan x="8" dy="0">Lambda</tspan><tspan x="8" dy="1.1em">send_to_kindle</tspan></text><text font-family="Open Sans" y="36.5" font-size="25pt" fill="#f5b720" font-weight="bold" transform="" xml:space="preserve"><tspan x="8" dy="0">Lambda</tspan><tspan x="8" dy="1.1em">send_to_kindle</tspan></text></svg></g></g><g opacity="1"><g id="6e146615-4adb-4cc1-b0d0-49d8c0b5111e"><svg x="720" y="1148" overflow="visible"><text stroke="#ffffff" stroke-width="4" font-family="Open Sans" y="36.5" font-size="25pt" fill="#f5b720" font-weight="bold" transform="" xml:space="preserve"><tspan x="8" dy="0">Lambda</tspan><tspan x="8" dy="1.1em">send_to_mailjet</tspan></text><text font-family="Open Sans" y="36.5" font-size="25pt" fill="#f5b720" font-weight="bold" transform="" xml:space="preserve"><tspan x="8" dy="0">Lambda</tspan><tspan x="8" dy="1.1em">send_to_mailjet</tspan></text></svg></g></g><g opacity="1"><g id="d65d93d9-0c4b-428c-b173-90af27eaf110"><svg x="158" y="1148" overflow="visible"><text stroke="#ffffff" stroke-width="4" font-family="Open Sans" y="36.5" font-size="25pt" fill="#f5b720" font-weight="bold" transform="" xml:space="preserve"><tspan x="8" dy="0">Mailjet</tspan><tspan x="8" dy="1.1em">/send API</tspan></text><text font-family="Open Sans" y="36.5" font-size="25pt" fill="#f5b720" font-weight="bold" transform="" xml:space="preserve"><tspan x="8" dy="0">Mailjet</tspan><tspan x="8" dy="1.1em">/send API</tspan></text></svg></g></g><g opacity="1"><g id="ef2e7d02-8dbc-42fe-8f87-b4fe34ef6f93"><svg x="720" y="68" overflow="visible"><text stroke="#ffffff" stroke-width="4" font-family="Open Sans" y="36.5" font-size="25pt" fill="#f5b720" font-weight="bold" transform="" xml:space="preserve"><tspan x="8" dy="0">CloudWatch</tspan><tspan x="8" dy="1.1em">cron event</tspan></text><text font-family="Open Sans" y="36.5" font-size="25pt" fill="#f5b720" font-weight="bold" transform="" xml:space="preserve"><tspan x="8" dy="0">CloudWatch</tspan><tspan x="8" dy="1.1em">cron event</tspan></text></svg></g></g></g><g></g></g></svg>