<?xml version="1.0" standalone="no"?>
<!DOCTYPE svg PUBLIC "-//W3C//DTD SVG 1.1//EN"
  "http://www.w3.org/Graphics/SVG/1.1/DTD/svg11.dtd">
<svg version="1.1" xmlns="http://www.w3.org/2000/svg" xmlns:xlink="http://www.w3.org/1999/xlink" width="1434" height="850" viewBox="-992.6717647058823 -32 1793.3435294117646 1063" id="ccdiagram"><filter id="grayscale"><feColorMatrix type="matrix" values="0.3333 0.3333 0.3333 0 0 0.3333 0.3333 0.3333 0 0 0.3333 0.3333 0.3333 0 0 0 0 0 1 0"></feColorMatrix></filter><defs><style type="text/css">@import url('https://fonts.googleapis.com/css?family=Open+Sans:400,700|Inconsolata:400');</style></defs><g><g pointer-events="auto"><g opacity="1"><g><g><polygon points="-16 120, 544 444, 544 481, -192 907, -256 907, -816 583, -816 546, -80 120" fill="#ffffff" stroke-width="2" stroke="#818181"></polygon><polygon points="-48 139, 512 463, -224 888, -784 564" fill="#e6e7e8" stroke-width="0" stroke="#818181"></polygon></g></g></g></g><g pointer-events="auto"></g><g></g><g pointer-events="auto"></g><g></g><g pointer-events="auto"></g><g pointer-events="none"></g><g pointer-events="auto"><g><g cursor="cell"><line x1="0" y1="444" x2="-102" y2="503" stroke="red" stroke-width="8" opacity="0"></line><line x1="0" y1="444" x2="-102" y2="503" stroke="#000000" stroke-width="2" stroke-linecap="round"></line><polygon points="-112 509, -86 503, -100 502, -103 494, -112 509" stroke-linejoin="round" fill="#000000" stroke="#000000" stroke-width="1"></polygon></g></g><g><g cursor="cell"><line x1="-320" y1="629" x2="-438" y2="697" stroke="red" stroke-width="8" opacity="0"></line><line x1="-320" y1="629" x2="-438" y2="697" stroke="#000000" stroke-width="2" stroke-linecap="round"></line><polygon points="-448 703, -422 698, -436 696, -439 688, -448 703" stroke-linejoin="round" fill="#000000" stroke="#000000" stroke-width="1"></polygon></g></g><g><g cursor="cell"><line x1="184" y1="338" x2="90" y2="392" stroke="red" stroke-width="8" opacity="0"></line><line x1="184" y1="338" x2="90" y2="392" stroke="#000000" stroke-width="2" stroke-linecap="round"></line><polygon points="80 398, 106 392, 92 391, 89 383, 80 398" stroke-linejoin="round" fill="#000000" stroke="#000000" stroke-width="1"></polygon></g></g><g><g cursor="cell"><line x1="-209" y1="508" x2="-466" y2="500" stroke="red" stroke-width="8" opacity="0"></line><line x1="-209" y1="508" x2="-466" y2="500" stroke="#000000" stroke-width="2" stroke-linecap="round"></line><polygon points="-480 500, -456 507, -462 500, -455 494, -480 500" stroke-linejoin="round" fill="#000000" stroke="#000000" stroke-width="1"></polygon></g></g><g><g cursor="cell"><line x1="-192" y1="555" x2="-230" y2="577" stroke="red" stroke-width="8" opacity="0"></line><line x1="-192" y1="555" x2="-230" y2="577" stroke="#000000" stroke-width="2" stroke-linecap="round"></line><polygon points="-240 583, -214 577, -228 576, -231 568, -240 583" stroke-linejoin="round" fill="#000000" stroke="#000000" stroke-width="1"></polygon></g></g><g><g cursor="cell"><line x1="-128" y1="555" x2="-143" y2="686" stroke="red" stroke-width="8" opacity="0"></line><line x1="-128" y1="555" x2="-143" y2="686" stroke="#000000" stroke-width="2" stroke-linecap="round"></line><polygon points="-144 694, -131 680, -143 684, -154 679, -144 694" stroke-linejoin="round" fill="#000000" stroke="#000000" stroke-width="1"></polygon></g></g><g><g cursor="cell"><line x1="-128" y1="740" x2="-246" y2="808" stroke="red" stroke-width="8" opacity="0"></line><line x1="-128" y1="740" x2="-246" y2="808" stroke="#000000" stroke-width="2" stroke-linecap="round"></line><polygon points="-256 814, -230 809, -244 807, -247 799, -256 814" stroke-linejoin="round" fill="#000000" stroke="#000000" stroke-width="1"></polygon></g></g><g><g cursor="cell"><line x1="-544" y1="500" x2="-662" y2="568" stroke="red" stroke-width="8" opacity="0"></line><line x1="-544" y1="500" x2="-662" y2="568" stroke="#000000" stroke-width="2" stroke-linecap="round"></line><polygon points="-672 574, -646 568, -660 566, -663 559, -672 574" stroke-linejoin="round" fill="#000000" stroke="#000000" stroke-width="1"></polygon></g></g><g><g cursor="cell"><line x1="-16" y1="398" x2="-182" y2="302" stroke="red" stroke-width="8" opacity="0"></line><line x1="-16" y1="398" x2="-182" y2="302" stroke="#000000" stroke-width="2" stroke-linecap="round"></line><polygon points="-192 296, -183 311, -180 303, -166 301, -192 296" stroke-linejoin="round" fill="#000000" stroke="#000000" stroke-width="1"></polygon></g></g></g><g pointer-events="auto"><g opacity="1"><g id="1a8413ed-e7b5-44f5-85f9-39569374976e" transform="translate(0 0)"><svg x="152" y="256" height="95.068" width="63" viewBox="0 0 16.669 25.153"><path d="M16.668 22.903q0 1.64-.864 2.091-.865.451-2.297-.376L3.161 18.645q-1.433-.827-2.297-2.276Q.001 14.921 0 13.28q0-.723.042-1.39.042-.666.166-1.394.124-.727.313-1.302.19-.575.51-1.039.319-.464.733-.683.414-.22 1.012-.147.598.073 1.32.49.107.06.497.58.391.52.882 1.165.491.646 1.279 1.394.788.75 1.58 1.207.793.458 1.58.618.788.161 1.28.083.49-.079.881-.147.39-.069.497-.007.722.416 1.32 1.035.598.619 1.013 1.315.414.697.734 1.531t.509 1.627q.19.793.313 1.664.124.872.166 1.586.042.713.042 1.438zM12.88 8.51q0 2.173-1.332 2.942-1.332.769-3.214-.318-1.882-1.086-3.214-3.393Q3.79 5.434 3.79 3.26q0-2.173 1.331-2.942 1.332-.77 3.214.317t3.214 3.394q1.332 2.306 1.332 4.48z" fill="#000" stroke="#000000" stroke-width=".268"></path></svg></g></g><g opacity="1"><g id="a06d0d53-feaf-4fb0-8448-da3d219973bd" transform="translate(0 0)"><svg x="-16" y="340" height="113.438" width="96" viewBox="0 0 25.4 30.014"><g transform="translate(412.599 -86.957)"><g fill-rule="evenodd"><path d="M-412.333 102.348v4.786l8.29 4.785h8.289l8.29-4.785v-4.786l-8.29-4.786h-8.29z" fill="#3c3c3c"></path><path d="M-395.754 111.92l8.29-4.786v4.785l-8.29 4.786z" fill="#090909"></path><path d="M-404.044 111.92h8.29v4.785h-8.29z" fill="#232323"></path><path d="M-412.333 107.134v4.785l8.29 4.786v-4.786z" fill="#232323"></path><path d="M-412.333 107.134l8.29 4.785h8.289l8.29-4.785M-404.044 111.92v4.785M-395.754 111.92v4.785" fill="none" stroke="#a2a2a2" stroke-width=".26588"></path><path d="M-412.333 102.348v9.571l8.29 4.786h8.289l8.29-4.786v-9.571l-8.29-4.786h-8.29z" fill="none" stroke="#000000" stroke-width=".53176"></path></g><path d="M-412.333 97.178v4.786l8.29 4.786h8.289l8.29-4.786v-4.786l-8.29-4.786h-8.29z" fill="#3c3c3c" fill-rule="evenodd" stroke-width=".332"></path><path d="M-395.754 106.75l8.29-4.786v4.786l-8.29 4.786z" fill="#090909" fill-rule="evenodd" stroke-width=".332"></path><path d="M-404.044 106.75h8.29v4.786h-8.29z" fill="#232323" fill-rule="evenodd" stroke-width=".332"></path><path d="M-412.333 101.964v4.786l8.29 4.786v-4.786z" fill="#232323" fill-rule="evenodd" stroke-width=".332"></path><path d="M-412.333 101.964l8.29 4.786h8.289l8.29-4.786M-404.044 106.75v4.786M-395.754 106.75v4.786" fill="none" fill-rule="evenodd" stroke="#a2a2a2" stroke-width=".266"></path><path d="M-412.333 97.178v9.572l8.29 4.786h8.289l8.29-4.786v-9.572l-8.29-4.786h-8.29z" fill="none" fill-rule="evenodd" stroke="#000000" stroke-width=".532"></path><path d="M-412.333 92.01v4.785l8.29 4.786h8.289l8.29-4.786v-4.786l-8.29-4.786h-8.29z" fill="#3c3c3c" fill-rule="evenodd" stroke-width=".332"></path><path d="M-395.754 101.58l8.29-4.785v4.786l-8.29 4.786z" fill="#090909" fill-rule="evenodd" stroke-width=".332"></path><path d="M-404.044 101.58h8.29v4.787h-8.29z" fill="#232323" fill-rule="evenodd" stroke-width=".332"></path><path d="M-412.333 96.795v4.786l8.29 4.786v-4.786z" fill="#232323" fill-rule="evenodd" stroke-width=".332"></path><path d="M-412.333 96.795l8.29 4.786h8.289l8.29-4.786M-404.044 101.58v4.787M-395.754 101.58v4.787" fill="none" fill-rule="evenodd" stroke="#a2a2a2" stroke-width=".266"></path><path d="M-412.333 92.01v9.57l8.29 4.787h8.289l8.29-4.786v-9.572l-8.29-4.786h-8.29z" fill="none" fill-rule="evenodd" stroke="#000000" stroke-width=".532"></path><circle cx="-136.478" cy="325.284" fill="#f4b934" r="5.801" stroke-width=".286" transform="scale(1.22475 .7071) rotate(45)"></circle><g style="line-height: 0%;"><path d="M-399.242 93.57l.48-.601q.222-.275.177-.448-.04-.17-.467-.416l-.507-.293 1.065-.614.937.541q.825.476.92.934.1.46-.417 1.114l-3.452 4.39-1.622-.937 1.654-2.121-3.729.923-1.622-.936z" fill="#ffffff" font-family="Droid Serif" font-size="9.971" stroke-width=".266" style="line-height: 1.25;"></path></g></g></svg></g></g><g opacity="1"><g id="6218b9ea-5fb9-445a-8caa-e891a32458d2" transform="translate(0 0)"><svg x="-209" y="444" height="120.799" width="97" viewBox="0 0 25.665 31.962"><path d="M.269 5.1v21.761l8.375 4.836V9.937z" fill="#d2d2d4" fill-rule="evenodd" stroke-width=".336"></path><path d="M4.457 2.682v4.836l4.187 2.418h8.376l4.188-2.418V2.682L17.02.265H8.644z" fill="none" fill-rule="evenodd" stroke="#000" stroke-width=".269"></path><path d="M8.644 9.936h8.376v21.76H8.644z" fill="#d2d2d4" fill-rule="evenodd" stroke-width=".336"></path><path d="M.269 5.1v4.836l8.375 4.836h8.376l8.376-4.836V5.1L17.02.265H8.644z" fill="#ececed" fill-rule="evenodd" stroke-width=".336"></path><path d="M17.02 9.936L25.396 5.1v21.761l-8.376 4.836z" fill="#b8b8bb" fill-rule="evenodd" stroke-width=".336"></path><path d="M8.644 14.772V9.936h8.376v4.836z" fill="none" fill-rule="evenodd" stroke="#83838a" stroke-width=".269"></path><g fill="none" fill-rule="evenodd" stroke="#83838a"><path d="M.269 5.1l8.375 4.836h8.376L25.396 5.1M8.644 9.936v21.76M17.02 9.936v21.76" stroke-width=".26865"></path></g><path d="M.269 9.936l4.188-2.418V2.682L.269 5.1z" fill="#ececed" fill-rule="evenodd" stroke="#83838a" stroke-width=".269"></path><path d="M8.644 14.772V9.936L4.457 7.518.269 9.936z" fill="none" fill-rule="evenodd" stroke="#83838a" stroke-width=".269"></path><path d="M21.208 7.518V2.682L25.396 5.1v4.836" fill="#d2d2d4" fill-rule="evenodd" stroke="#83838a" stroke-width=".269"></path><path d="M25.396 9.936l-4.188-2.418-4.188 2.418v4.836z" fill="#d2d2d4" fill-rule="evenodd" stroke="#83838a" stroke-width=".269"></path><path d="M.269 5.1v21.761l8.375 4.836h8.376l8.376-4.836V5.101L17.02.264H8.644z" fill="none" fill-rule="evenodd" stroke="#000000" stroke-width=".529"></path><g transform="scale(.29127 .16816) rotate(45 -326.555 -2684.243)"><circle cx="1484" cy="-2012" fill="#4286c5" r="17.6" stroke-width="1.6" transform="matrix(1.25 0 0 1.25 0 1488.188)"></circle><path d="M1847.206-1009.63h15.588l-7.794-4.5zM1847.206-1017.135h15.588v-4.5h-15.588zM1847.206-1024.563h15.588v-4.5h-15.588zM1847.206-1031.99h15.588v-4.5h-15.588zM1847.206-1039.418h15.588l-7.794-4.5z" fill="#ffffff" fill-rule="evenodd"></path></g></svg></g></g><g opacity="1"><g id="fb1703c3-3ea9-4880-b8ef-11c5888b2b41" transform="translate(0 0)"><svg x="-560" y="395" height="113.438" width="96" viewBox="0 0 25.4 30.014"><g transform="translate(412.599 -86.957)"><g fill-rule="evenodd"><path d="M-412.333 102.348v4.786l8.29 4.785h8.289l8.29-4.785v-4.786l-8.29-4.786h-8.29z" fill="#3c3c3c"></path><path d="M-395.754 111.92l8.29-4.786v4.785l-8.29 4.786z" fill="#090909"></path><path d="M-404.044 111.92h8.29v4.785h-8.29z" fill="#232323"></path><path d="M-412.333 107.134v4.785l8.29 4.786v-4.786z" fill="#232323"></path><path d="M-412.333 107.134l8.29 4.785h8.289l8.29-4.785M-404.044 111.92v4.785M-395.754 111.92v4.785" fill="none" stroke="#a2a2a2" stroke-width=".26588"></path><path d="M-412.333 102.348v9.571l8.29 4.786h8.289l8.29-4.786v-9.571l-8.29-4.786h-8.29z" fill="none" stroke="#000000" stroke-width=".53176"></path></g><path d="M-412.333 97.178v4.786l8.29 4.786h8.289l8.29-4.786v-4.786l-8.29-4.786h-8.29z" fill="#3c3c3c" fill-rule="evenodd" stroke-width=".332"></path><path d="M-395.754 106.75l8.29-4.786v4.786l-8.29 4.786z" fill="#090909" fill-rule="evenodd" stroke-width=".332"></path><path d="M-404.044 106.75h8.29v4.786h-8.29z" fill="#232323" fill-rule="evenodd" stroke-width=".332"></path><path d="M-412.333 101.964v4.786l8.29 4.786v-4.786z" fill="#232323" fill-rule="evenodd" stroke-width=".332"></path><path d="M-412.333 101.964l8.29 4.786h8.289l8.29-4.786M-404.044 106.75v4.786M-395.754 106.75v4.786" fill="none" fill-rule="evenodd" stroke="#a2a2a2" stroke-width=".266"></path><path d="M-412.333 97.178v9.572l8.29 4.786h8.289l8.29-4.786v-9.572l-8.29-4.786h-8.29z" fill="none" fill-rule="evenodd" stroke="#000000" stroke-width=".532"></path><path d="M-412.333 92.01v4.785l8.29 4.786h8.289l8.29-4.786v-4.786l-8.29-4.786h-8.29z" fill="#3c3c3c" fill-rule="evenodd" stroke-width=".332"></path><path d="M-395.754 101.58l8.29-4.785v4.786l-8.29 4.786z" fill="#090909" fill-rule="evenodd" stroke-width=".332"></path><path d="M-404.044 101.58h8.29v4.787h-8.29z" fill="#232323" fill-rule="evenodd" stroke-width=".332"></path><path d="M-412.333 96.795v4.786l8.29 4.786v-4.786z" fill="#232323" fill-rule="evenodd" stroke-width=".332"></path><path d="M-412.333 96.795l8.29 4.786h8.289l8.29-4.786M-404.044 101.58v4.787M-395.754 101.58v4.787" fill="none" fill-rule="evenodd" stroke="#a2a2a2" stroke-width=".266"></path><path d="M-412.333 92.01v9.57l8.29 4.787h8.289l8.29-4.786v-9.572l-8.29-4.786h-8.29z" fill="none" fill-rule="evenodd" stroke="#000000" stroke-width=".532"></path><circle cx="-136.478" cy="325.284" fill="#f4b934" r="5.801" stroke-width=".286" transform="scale(1.22475 .7071) rotate(45)"></circle><g style="line-height: 0%;"><path d="M-399.242 93.57l.48-.601q.222-.275.177-.448-.04-.17-.467-.416l-.507-.293 1.065-.614.937.541q.825.476.92.934.1.46-.417 1.114l-3.452 4.39-1.622-.937 1.654-2.121-3.729.923-1.622-.936z" fill="#ffffff" font-family="Droid Serif" font-size="9.971" stroke-width=".266" style="line-height: 1.25;"></path></g></g></svg></g></g><g opacity="1"><g id="e0d27dc2-8b9e-4cb6-bc02-0ca301862363" transform="translate(0 0)"><svg x="-336" y="525" height="113.438" width="96" viewBox="0 0 25.4 30.014"><g transform="translate(412.599 -86.957)"><g fill-rule="evenodd"><path d="M-412.333 102.348v4.786l8.29 4.785h8.289l8.29-4.785v-4.786l-8.29-4.786h-8.29z" fill="#3c3c3c"></path><path d="M-395.754 111.92l8.29-4.786v4.785l-8.29 4.786z" fill="#090909"></path><path d="M-404.044 111.92h8.29v4.785h-8.29z" fill="#232323"></path><path d="M-412.333 107.134v4.785l8.29 4.786v-4.786z" fill="#232323"></path><path d="M-412.333 107.134l8.29 4.785h8.289l8.29-4.785M-404.044 111.92v4.785M-395.754 111.92v4.785" fill="none" stroke="#a2a2a2" stroke-width=".26588"></path><path d="M-412.333 102.348v9.571l8.29 4.786h8.289l8.29-4.786v-9.571l-8.29-4.786h-8.29z" fill="none" stroke="#000000" stroke-width=".53176"></path></g><path d="M-412.333 97.178v4.786l8.29 4.786h8.289l8.29-4.786v-4.786l-8.29-4.786h-8.29z" fill="#3c3c3c" fill-rule="evenodd" stroke-width=".332"></path><path d="M-395.754 106.75l8.29-4.786v4.786l-8.29 4.786z" fill="#090909" fill-rule="evenodd" stroke-width=".332"></path><path d="M-404.044 106.75h8.29v4.786h-8.29z" fill="#232323" fill-rule="evenodd" stroke-width=".332"></path><path d="M-412.333 101.964v4.786l8.29 4.786v-4.786z" fill="#232323" fill-rule="evenodd" stroke-width=".332"></path><path d="M-412.333 101.964l8.29 4.786h8.289l8.29-4.786M-404.044 106.75v4.786M-395.754 106.75v4.786" fill="none" fill-rule="evenodd" stroke="#a2a2a2" stroke-width=".266"></path><path d="M-412.333 97.178v9.572l8.29 4.786h8.289l8.29-4.786v-9.572l-8.29-4.786h-8.29z" fill="none" fill-rule="evenodd" stroke="#000000" stroke-width=".532"></path><path d="M-412.333 92.01v4.785l8.29 4.786h8.289l8.29-4.786v-4.786l-8.29-4.786h-8.29z" fill="#3c3c3c" fill-rule="evenodd" stroke-width=".332"></path><path d="M-395.754 101.58l8.29-4.785v4.786l-8.29 4.786z" fill="#090909" fill-rule="evenodd" stroke-width=".332"></path><path d="M-404.044 101.58h8.29v4.787h-8.29z" fill="#232323" fill-rule="evenodd" stroke-width=".332"></path><path d="M-412.333 96.795v4.786l8.29 4.786v-4.786z" fill="#232323" fill-rule="evenodd" stroke-width=".332"></path><path d="M-412.333 96.795l8.29 4.786h8.289l8.29-4.786M-404.044 101.58v4.787M-395.754 101.58v4.787" fill="none" fill-rule="evenodd" stroke="#a2a2a2" stroke-width=".266"></path><path d="M-412.333 92.01v9.57l8.29 4.787h8.289l8.29-4.786v-9.572l-8.29-4.786h-8.29z" fill="none" fill-rule="evenodd" stroke="#000000" stroke-width=".532"></path><circle cx="-136.478" cy="325.284" fill="#f4b934" r="5.801" stroke-width=".286" transform="scale(1.22475 .7071) rotate(45)"></circle><g style="line-height: 0%;"><path d="M-399.242 93.57l.48-.601q.222-.275.177-.448-.04-.17-.467-.416l-.507-.293 1.065-.614.937.541q.825.476.92.934.1.46-.417 1.114l-3.452 4.39-1.622-.937 1.654-2.121-3.729.923-1.622-.936z" fill="#ffffff" font-family="Droid Serif" font-size="9.971" stroke-width=".266" style="line-height: 1.25;"></path></g></g></svg></g></g><g opacity="1"><g id="f23a73a7-fe53-439a-9e41-c6c016e02fe2" transform="translate(0 0)"><svg x="-144" y="636" height="113.438" width="96" viewBox="0 0 25.4 30.014"><g transform="translate(412.599 -86.957)"><g fill-rule="evenodd"><path d="M-412.333 102.348v4.786l8.29 4.785h8.289l8.29-4.785v-4.786l-8.29-4.786h-8.29z" fill="#3c3c3c"></path><path d="M-395.754 111.92l8.29-4.786v4.785l-8.29 4.786z" fill="#090909"></path><path d="M-404.044 111.92h8.29v4.785h-8.29z" fill="#232323"></path><path d="M-412.333 107.134v4.785l8.29 4.786v-4.786z" fill="#232323"></path><path d="M-412.333 107.134l8.29 4.785h8.289l8.29-4.785M-404.044 111.92v4.785M-395.754 111.92v4.785" fill="none" stroke="#a2a2a2" stroke-width=".26588"></path><path d="M-412.333 102.348v9.571l8.29 4.786h8.289l8.29-4.786v-9.571l-8.29-4.786h-8.29z" fill="none" stroke="#000000" stroke-width=".53176"></path></g><path d="M-412.333 97.178v4.786l8.29 4.786h8.289l8.29-4.786v-4.786l-8.29-4.786h-8.29z" fill="#3c3c3c" fill-rule="evenodd" stroke-width=".332"></path><path d="M-395.754 106.75l8.29-4.786v4.786l-8.29 4.786z" fill="#090909" fill-rule="evenodd" stroke-width=".332"></path><path d="M-404.044 106.75h8.29v4.786h-8.29z" fill="#232323" fill-rule="evenodd" stroke-width=".332"></path><path d="M-412.333 101.964v4.786l8.29 4.786v-4.786z" fill="#232323" fill-rule="evenodd" stroke-width=".332"></path><path d="M-412.333 101.964l8.29 4.786h8.289l8.29-4.786M-404.044 106.75v4.786M-395.754 106.75v4.786" fill="none" fill-rule="evenodd" stroke="#a2a2a2" stroke-width=".266"></path><path d="M-412.333 97.178v9.572l8.29 4.786h8.289l8.29-4.786v-9.572l-8.29-4.786h-8.29z" fill="none" fill-rule="evenodd" stroke="#000000" stroke-width=".532"></path><path d="M-412.333 92.01v4.785l8.29 4.786h8.289l8.29-4.786v-4.786l-8.29-4.786h-8.29z" fill="#3c3c3c" fill-rule="evenodd" stroke-width=".332"></path><path d="M-395.754 101.58l8.29-4.785v4.786l-8.29 4.786z" fill="#090909" fill-rule="evenodd" stroke-width=".332"></path><path d="M-404.044 101.58h8.29v4.787h-8.29z" fill="#232323" fill-rule="evenodd" stroke-width=".332"></path><path d="M-412.333 96.795v4.786l8.29 4.786v-4.786z" fill="#232323" fill-rule="evenodd" stroke-width=".332"></path><path d="M-412.333 96.795l8.29 4.786h8.289l8.29-4.786M-404.044 101.58v4.787M-395.754 101.58v4.787" fill="none" fill-rule="evenodd" stroke="#a2a2a2" stroke-width=".266"></path><path d="M-412.333 92.01v9.57l8.29 4.787h8.289l8.29-4.786v-9.572l-8.29-4.786h-8.29z" fill="none" fill-rule="evenodd" stroke="#000000" stroke-width=".532"></path><circle cx="-136.478" cy="325.284" fill="#f4b934" r="5.801" stroke-width=".286" transform="scale(1.22475 .7071) rotate(45)"></circle><g style="line-height: 0%;"><path d="M-399.242 93.57l.48-.601q.222-.275.177-.448-.04-.17-.467-.416l-.507-.293 1.065-.614.937.541q.825.476.92.934.1.46-.417 1.114l-3.452 4.39-1.622-.937 1.654-2.121-3.729.923-1.622-.936z" fill="#ffffff" font-family="Droid Serif" font-size="9.971" stroke-width=".266" style="line-height: 1.25;"></path></g></g></svg></g></g></g><g pointer-events="auto"></g><g pointer-events="auto"><g opacity="1"><g id="459ab258-a7e0-411c-9fe1-4562e5d23b6e" transform="translate(0 0)"><svg x="-192" y="296" overflow="visible"><g transform="scale(2.729575167846423) matrix(0.707 0.409 -0.707 0.409 0 0)"><circle cx="0" cy="0" fill="#000000" r="23"></circle><svg width="25" height="32" x="-12.5" y="-16" style="fill: rgb(255, 255, 255);"><svg xmlns="http://www.w3.org/2000/svg" width="25" height="32" viewBox="0 0 25 32"><path d="M20.179 10.661l.286-3.125H4.679l.839 9.536h10.929l-.393 4.071-3.518.946-3.5-.946-.232-2.5H5.679l.393 4.964 6.464 1.786h.071v-.018l6.411-1.768.893-9.714h-11.5l-.268-3.232h12.036zM0 2.286h25.143l-2.286 25.679-10.321 2.893-10.25-2.893z"></path></svg></svg></g></svg></g></g><g opacity="1"><g id="1c6d2f2b-4643-4e11-a89a-8298b11fb353" transform="translate(0 0)"><svg x="-448" y="703" overflow="visible"><g transform="scale(1.7469281074217107) matrix(0.707 0.409 -0.707 0.409 0 0)"><circle cx="0" cy="0" fill="#000000" r="23"></circle><svg width="32" height="32" x="-16" y="-16" style="fill: rgb(255, 255, 255);"><svg xmlns="http://www.w3.org/2000/svg" width="32" height="32" viewBox="0 0 32 32"><path d="M32 15.107a3.551 3.551 0 0 1-1.946 3.179c.143.554.214 1.125.214 1.714 0 5.643-6.375 10.214-14.232 10.214-7.839 0-14.214-4.571-14.214-10.214 0-.571.071-1.143.196-1.679A3.583 3.583 0 0 1 0 15.107a3.552 3.552 0 0 1 3.554-3.554c1.018 0 1.929.429 2.589 1.125 2.411-1.679 5.625-2.768 9.196-2.893L17.41.481a.625.625 0 0 1 .732-.464l6.589 1.446a2.672 2.672 0 0 1 5.054 1.197 2.675 2.675 0 0 1-2.679 2.679 2.668 2.668 0 0 1-2.661-2.661l-5.964-1.321-1.857 8.429c3.589.107 6.839 1.179 9.268 2.857a3.503 3.503 0 0 1 2.554-1.089A3.552 3.552 0 0 1 32 15.108zM7.464 18.661a2.671 2.671 0 0 0 2.661 2.679 2.675 2.675 0 0 0 2.679-2.679A2.671 2.671 0 0 0 10.125 16a2.668 2.668 0 0 0-2.661 2.661zM21.929 25a.637.637 0 0 0 0-.929.647.647 0 0 0-.911 0c-1.071 1.089-3.375 1.464-5.018 1.464s-3.946-.375-5.018-1.464a.647.647 0 0 0-.911 0c-.268.25-.268.661 0 .929 1.696 1.696 4.964 1.821 5.929 1.821s4.232-.125 5.929-1.821zm-.054-3.661a2.671 2.671 0 0 0 2.661-2.679 2.668 2.668 0 0 0-2.661-2.661 2.671 2.671 0 0 0-2.679 2.661 2.675 2.675 0 0 0 2.679 2.679z"></path></svg></svg></g></svg></g></g><g opacity="1"><g id="dae459f7-fcbb-4cd0-a788-a94111bbc68b" transform="translate(0 0)"><svg x="-256" y="814" overflow="visible"><g transform="scale(1.7469281074217107) matrix(0.707 0.409 -0.707 0.409 0 0)"><circle cx="0" cy="0" fill="#000000" r="23"></circle><svg width="30" height="32" x="-15" y="-16" style="fill: rgb(255, 255, 255);"><svg xmlns="http://www.w3.org/2000/svg" width="30" height="32" viewBox="0 0 30 32"><path d="M28.929 7.286a12.395 12.395 0 0 1-2.893 2.982c.018.25.018.5.018.75 0 7.625-5.804 16.411-16.411 16.411-3.268 0-6.304-.946-8.857-2.589.464.054.911.071 1.393.071 2.696 0 5.179-.911 7.161-2.464a5.778 5.778 0 0 1-5.393-4c.357.054.714.089 1.089.089.518 0 1.036-.071 1.518-.196a5.769 5.769 0 0 1-4.625-5.661v-.071a5.809 5.809 0 0 0 2.607.732 5.764 5.764 0 0 1-2.571-4.804c0-1.071.286-2.054.786-2.911a16.394 16.394 0 0 0 11.893 6.036 6.533 6.533 0 0 1-.143-1.321 5.765 5.765 0 0 1 5.768-5.768c1.661 0 3.161.696 4.214 1.821A11.345 11.345 0 0 0 28.144 5a5.756 5.756 0 0 1-2.536 3.179 11.534 11.534 0 0 0 3.321-.893z"></path></svg></svg></g></svg></g></g><g opacity="1"><g id="92c1c21b-e1fd-4d2e-aa97-d40f1817d99d" transform="translate(0 0)"><svg x="-672" y="574" overflow="visible"><g transform="scale(1.7469281074217107) matrix(0.707 0.409 -0.707 0.409 0 0)"><circle cx="0" cy="0" fill="#000000" r="23"></circle><svg width="32" height="32" x="-16" y="-16" style="fill: rgb(255, 255, 255);"><svg xmlns="http://www.w3.org/2000/svg" width="32" height="32" viewBox="0 0 32 32"><path d="M11.429 16c0 1.268-1.018 2.286-2.286 2.286S6.857 17.268 6.857 16s1.018-2.286 2.286-2.286 2.286 1.018 2.286 2.286zm6.857 0c0 1.268-1.018 2.286-2.286 2.286S13.714 17.268 13.714 16s1.018-2.286 2.286-2.286 2.286 1.018 2.286 2.286zm6.857 0c0 1.268-1.018 2.286-2.286 2.286S20.571 17.268 20.571 16s1.018-2.286 2.286-2.286 2.286 1.018 2.286 2.286zM16 6.857C8.571 6.857 2.286 11.036 2.286 16c0 2.661 1.786 5.196 4.875 6.946l1.554.893-.482 1.714a12.855 12.855 0 0 1-1.25 3.071 17.698 17.698 0 0 0 4.911-3.054l.768-.679 1.018.107c.768.089 1.554.143 2.321.143 7.429 0 13.714-4.179 13.714-9.143s-6.286-9.143-13.714-9.143zM32 16c0 6.321-7.161 11.429-16 11.429-.875 0-1.75-.054-2.589-.143-2.339 2.071-5.125 3.536-8.214 4.321-.643.179-1.339.304-2.036.393h-.089c-.357 0-.679-.286-.768-.679v-.018c-.089-.446.214-.714.482-1.036 1.125-1.268 2.411-2.339 3.25-5.321C2.357 22.857 0 19.625 0 16 0 9.696 7.161 4.571 16 4.571S32 9.696 32 16z"></path></svg></svg></g></svg></g></g></g><g pointer-events="auto"><g opacity="1"><g id="a21e5494-209f-4286-bc1a-8d06acba2e2f"><svg x="151" y="319" overflow="visible"><text stroke="#ffffff" stroke-width="4" font-family="Open Sans" y="36.5" font-size="25pt" fill="#f5b720" font-weight="bold" transform="matrix(0.707 0.409 -0.707 0.409 0 0)" xml:space="preserve"><tspan x="8" dy="0">CLI Lambda invoke</tspan></text><text font-family="Open Sans" y="36.5" font-size="25pt" fill="#f5b720" font-weight="bold" transform="matrix(0.707 0.409 -0.707 0.409 0 0)" xml:space="preserve"><tspan x="8" dy="0">CLI Lambda invoke</tspan></text></svg></g></g><g opacity="1"><g id="2cb650ed-3169-41a2-b9ee-f1e53d013cc9"><svg x="-48" y="416" overflow="visible"><text stroke="#ffffff" stroke-width="4" font-family="Open Sans" y="36.5" font-size="25pt" fill="#f5b720" font-weight="bold" transform="matrix(0.707 0.409 -0.707 0.409 0 0)" xml:space="preserve"><tspan x="8" dy="0">publish-to-social</tspan></text><text font-family="Open Sans" y="36.5" font-size="25pt" fill="#f5b720" font-weight="bold" transform="matrix(0.707 0.409 -0.707 0.409 0 0)" xml:space="preserve"><tspan x="8" dy="0">publish-to-social</tspan></text></svg></g></g><g opacity="1"><g id="30c33d9d-4067-4163-b64a-65f43e1f21d7"><svg x="-176" y="712" overflow="visible"><text stroke="#ffffff" stroke-width="4" font-family="Open Sans" y="36.5" font-size="25pt" fill="#f5b720" font-weight="bold" transform="matrix(0.707 0.409 -0.707 0.409 0 0)" xml:space="preserve"><tspan x="8" dy="0">twitter</tspan></text><text font-family="Open Sans" y="36.5" font-size="25pt" fill="#f5b720" font-weight="bold" transform="matrix(0.707 0.409 -0.707 0.409 0 0)" xml:space="preserve"><tspan x="8" dy="0">twitter</tspan></text></svg></g></g><g opacity="1"><g id="b2df3c7a-a6e6-4b7f-984c-e91dea5978a0"><svg x="-368" y="601" overflow="visible"><text stroke="#ffffff" stroke-width="4" font-family="Open Sans" y="36.5" font-size="25pt" fill="#f5b720" font-weight="bold" transform="matrix(0.707 0.409 -0.707 0.409 0 0)" xml:space="preserve"><tspan x="8" dy="0">dev.to</tspan></text><text font-family="Open Sans" y="36.5" font-size="25pt" fill="#f5b720" font-weight="bold" transform="matrix(0.707 0.409 -0.707 0.409 0 0)" xml:space="preserve"><tspan x="8" dy="0">dev.to</tspan></text></svg></g></g><g opacity="1"><g id="9f2fc0bf-d30e-481d-87f4-c28260f9edc4"><svg x="-592" y="472" overflow="visible"><text stroke="#ffffff" stroke-width="4" font-family="Open Sans" y="36.5" font-size="25pt" fill="#f5b720" font-weight="bold" transform="matrix(0.707 0.409 -0.707 0.409 0 0)" xml:space="preserve"><tspan x="8" dy="0">&lt;other social&gt;</tspan></text><text font-family="Open Sans" y="36.5" font-size="25pt" fill="#f5b720" font-weight="bold" transform="matrix(0.707 0.409 -0.707 0.409 0 0)" xml:space="preserve"><tspan x="8" dy="0">&lt;other social&gt;</tspan></text></svg></g></g><g opacity="1"><g id="63093097-59b6-483d-891c-eb48a866cbf9" transform="translate(0 0)"><svg x="-320" y="278" overflow="visible"><text stroke="#ffffff" stroke-width="4" font-family="Open Sans" y="36.5" font-size="25pt" fill="#f5b720" font-weight="bold" transform="matrix(0.707 0.409 -0.707 0.409 0 0)" xml:space="preserve"><tspan x="8" dy="0">https://a.l3x.in/</tspan></text><text font-family="Open Sans" y="36.5" font-size="25pt" fill="#f5b720" font-weight="bold" transform="matrix(0.707 0.409 -0.707 0.409 0 0)" xml:space="preserve"><tspan x="8" dy="0">https://a.l3x.in/</tspan></text></svg></g></g></g><g></g></g></svg>