<?xml version="1.0" standalone="no"?>
<!DOCTYPE svg PUBLIC "-//W3C//DTD SVG 1.1//EN"
  "http://www.w3.org/Graphics/SVG/1.1/DTD/svg11.dtd">
<svg version="1.1" xmlns="http://www.w3.org/2000/svg" xmlns:xlink="http://www.w3.org/1999/xlink" width="801" height="990" viewBox="-32.0272727272727 -32 1144.0545454545454 1414" id="ccdiagram"><filter id="grayscale"><feColorMatrix type="matrix" values="0.3333 0.3333 0.3333 0 0 0.3333 0.3333 0.3333 0 0 0.3333 0.3333 0.3333 0 0 0 0 0 1 0"></feColorMatrix></filter><defs><style type="text/css">@import url('https://fonts.googleapis.com/css?family=Open+Sans:400,700|Inconsolata:400');</style></defs><g><g pointer-events="auto"></g><g pointer-events="auto"></g><g></g><g pointer-events="auto"></g><g></g><g pointer-events="auto"></g><g pointer-events="none"></g><g pointer-events="auto"><g><g cursor="cell"><line x1="360" y1="360" x2="360" y2="527" stroke="red" stroke-width="8" opacity="0"></line><line x1="360" y1="360" x2="360" y2="527" stroke="#000000" stroke-width="2" stroke-linecap="round"></line><polygon points="360 540, 371 516, 360 522, 349 516, 360 540" stroke-linejoin="round" fill="#000000" stroke="#000000" stroke-width="1"></polygon></g></g><g><g cursor="cell"><line x1="810" y1="1238" x2="810" y2="914" stroke="red" stroke-width="8" opacity="0"></line><line x1="810" y1="1238" x2="810" y2="914" stroke="#000000" stroke-width="2" stroke-linecap="round"></line><polygon points="810 900, 799 924, 810 918, 821 924, 810 900" stroke-linejoin="round" fill="#000000" stroke="#000000" stroke-width="1"></polygon></g></g><g><g cursor="cell"><line x1="315" y1="788" x2="100" y2="1003" stroke="red" stroke-width="8" opacity="0"></line><line x1="315" y1="788" x2="100" y2="1003" stroke="#000000" stroke-width="2" stroke-linecap="round"></line><polygon points="90 1013, 115 1003, 102 1000, 99 987, 90 1013" stroke-linejoin="round" fill="#000000" stroke="#000000" stroke-width="1"></polygon></g></g><g><g cursor="cell"><line x1="360" y1="158" x2="360" y2="347" stroke="red" stroke-width="8" opacity="0"></line><line x1="360" y1="158" x2="360" y2="347" stroke="#000000" stroke-width="2" stroke-linecap="round"></line><polygon points="360 360, 371 336, 360 342, 349 336, 360 360" stroke-linejoin="round" fill="#000000" stroke="#000000" stroke-width="1"></polygon></g></g><g><g cursor="cell"><line x1="585" y1="1013" x2="413" y2="1227" stroke="red" stroke-width="8" opacity="0"></line><line x1="585" y1="1013" x2="413" y2="1227" stroke="#000000" stroke-width="2" stroke-linecap="round"></line><polygon points="405 1238, 429 1226, 416 1224, 411 1211, 405 1238" stroke-linejoin="round" fill="#000000" stroke="#000000" stroke-width="1"></polygon></g></g><g><g cursor="cell"><line x1="405" y1="1238" x2="797" y2="1238" stroke="red" stroke-width="8" opacity="0"></line><line x1="405" y1="1238" x2="797" y2="1238" stroke="#000000" stroke-width="2" stroke-linecap="round"></line><polygon points="810 1238, 786 1226, 792 1238, 786 1249, 810 1238" stroke-linejoin="round" fill="#000000" stroke="#000000" stroke-width="1"></polygon></g></g><g><g cursor="cell"><line x1="315" y1="585" x2="59" y2="585" stroke="red" stroke-width="8" opacity="0"></line><line x1="315" y1="585" x2="59" y2="585" stroke="#000000" stroke-width="2" stroke-linecap="round"></line><polygon points="45 585, 69 596, 63 585, 69 574, 45 585" stroke-linejoin="round" fill="#000000" stroke="#000000" stroke-width="1"></polygon></g></g><g><g cursor="cell"><line x1="360" y1="833" x2="360" y2="954" stroke="red" stroke-width="8" opacity="0"></line><line x1="360" y1="833" x2="360" y2="954" stroke="#000000" stroke-width="2" stroke-linecap="round"></line><polygon points="360 968, 371 943, 360 950, 349 943, 360 968" stroke-linejoin="round" fill="#000000" stroke="#000000" stroke-width="1"></polygon></g></g><g><g cursor="cell"><line x1="90" y1="1013" x2="305" y2="1228" stroke="red" stroke-width="8" opacity="0"></line><line x1="90" y1="1013" x2="305" y2="1228" stroke="#000000" stroke-width="2" stroke-linecap="round"></line><polygon points="315 1238, 306 1212, 303 1225, 290 1228, 315 1238" stroke-linejoin="round" fill="#000000" stroke="#000000" stroke-width="1"></polygon></g></g><g><g cursor="cell"><line x1="810" y1="797" x2="810" y2="599" stroke="red" stroke-width="8" opacity="0"></line><line x1="810" y1="797" x2="810" y2="599" stroke="#000000" stroke-width="2" stroke-linecap="round"></line><polygon points="810 810, 821 786, 810 792, 799 786, 810 810" stroke-linejoin="round" fill="#000000" stroke="#000000" stroke-width="1"></polygon><polygon points="810 585, 799 609, 810 603, 821 609, 810 585" stroke-linejoin="round" fill="#000000" stroke="#000000" stroke-width="1"></polygon></g></g><g><g cursor="cell"><line x1="810" y1="351" x2="810" y2="572" stroke="red" stroke-width="8" opacity="0"></line><line x1="810" y1="351" x2="810" y2="572" stroke="#000000" stroke-width="2" stroke-linecap="round"></line><polygon points="810 338, 799 362, 810 355, 821 362, 810 338" stroke-linejoin="round" fill="#000000" stroke="#000000" stroke-width="1"></polygon><polygon points="810 585, 821 561, 810 567, 799 561, 810 585" stroke-linejoin="round" fill="#000000" stroke="#000000" stroke-width="1"></polygon></g></g><g><g cursor="cell"><line x1="360" y1="360" x2="59" y2="360" stroke="red" stroke-width="8" opacity="0"></line><line x1="360" y1="360" x2="59" y2="360" stroke="#000000" stroke-width="2" stroke-linecap="round"></line><polygon points="45 360, 69 371, 63 360, 69 349, 45 360" stroke-linejoin="round" fill="#000000" stroke="#000000" stroke-width="1"></polygon></g></g><g><g cursor="cell"><line x1="360" y1="833" x2="585" y2="1035" stroke="red" stroke-width="8" opacity="0"></line><line x1="360" y1="833" x2="585" y2="1035" stroke="#000000" stroke-width="2" stroke-linecap="round"></line></g></g><g><g cursor="cell"><line x1="360" y1="630" x2="360" y2="729" stroke="red" stroke-width="8" opacity="0"></line><line x1="360" y1="630" x2="360" y2="729" stroke="#000000" stroke-width="2" stroke-linecap="round"></line><polygon points="360 743, 371 718, 360 725, 349 718, 360 743" stroke-linejoin="round" fill="#000000" stroke="#000000" stroke-width="1"></polygon></g></g><g><g cursor="cell"><line x1="360" y1="1058" x2="360" y2="1179" stroke="red" stroke-width="8" opacity="0"></line><line x1="360" y1="1058" x2="360" y2="1179" stroke="#000000" stroke-width="2" stroke-linecap="round"></line><polygon points="360 1193, 371 1168, 360 1175, 349 1168, 360 1193" stroke-linejoin="round" fill="#000000" stroke="#000000" stroke-width="1"></polygon></g></g></g><g pointer-events="auto"><g opacity="1"><g id="a06d0d53-feaf-4fb0-8448-da3d219973bd" transform="translate(0 0)"><svg x="315" y="540" height="90" id="svg15" width="90" version="1.1"><defs id="defs4"></defs><g id="Reference" fill-opacity="1" transform="scale(1.2)"><path id="Orange_Light_BG" d="M0 0h75v75H0z" fill="#d86613" data-name="Orange Light BG"></path><g id="Product_Icon" fill="#ffffff" data-name="Product Icon"><path class="cls-2" id="path9" d="M60.5 62.5H48.18a1 1 0 0 1-.9-.57L29.86 25.5h-7.37a1 1 0 0 1-1-1v-11a1 1 0 0 1 1-1h15.4a1 1 0 0 1 .9.57L56.13 49.5h4.37a1 1 0 0 1 1 1v11a1 1 0 0 1-1 1zm-11.69-2H59.5v-9h-4a1 1 0 0 1-.9-.57L37.26 14.5H23.5v9h7a1 1 0 0 1 .9.57z" fill="#ffffff" fill-opacity="1"></path><path class="cls-2" id="path11" d="M27.48 62.5h-13a1 1 0 0 1-.85-.47 1 1 0 0 1-.05-1l13.6-28.41a1 1 0 0 1 .9-.57 1 1 0 0 1 .9.56L35.49 46a1 1 0 0 1 0 .87l-7.1 15a1 1 0 0 1-.91.63zm-11.4-2h10.77l6.63-14-5.39-11.15z" fill="#ffffff" fill-opacity="1"></path></g></g></svg></g></g><g opacity="1"><g id="6218b9ea-5fb9-445a-8caa-e891a32458d2" transform="translate(0 0)"><svg x="315" y="743" height="90" id="svg23" width="90" version="1.1"><defs id="defs4"></defs><g id="Working" fill-opacity="1" transform="scale(1.2)"><path id="Pink_Light_BG" d="M0 0h75v75H0z" fill="#cc2264" data-name="Pink Light BG"></path><g id="Product_Icon" fill="#ffffff" data-name="Product Icon"><path class="cls-2" id="path9" d="M54.58 50.92v.53a2.33 2.33 0 0 1 0-.53z" fill="#ffffff" fill-opacity="1"></path><path class="cls-2" id="path11" d="M41.45 31l-.1.19a.72.72 0 0 0 .09-.2z" fill="#ffffff" fill-opacity="1"></path><path class="cls-2" id="path13" d="M32.78 27.53c-.89 0-8.75-.07-8.75 2.9a1.42 1.42 0 0 0 .1.55 2 2 0 0 0 .1.21l5.44 12v6.21c0 .63.26 1 .81 1h.26a8.76 8.76 0 0 0 3.42-1.77l.67-.47a1 1 0 0 0 .47-.84v-4.1l6.05-12a.72.72 0 0 0 .09-.2 1.42 1.42 0 0 0 .1-.55c0-3.01-7.86-2.94-8.76-2.94zm0 1.84c3.53 0 5.8.62 6.56 1.06-.76.44-3 1.06-6.56 1.06-3.56 0-5.79-.62-6.55-1.06.77-.43 3.02-1.06 6.55-1.06zm.73 13V46.93l-.39.24c-.57.33-1.07.56-1.64.86V43a1.14 1.14 0 0 0-.08-.4l-4.26-9.74a25.91 25.91 0 0 0 5.64.62 26.37 26.37 0 0 0 5.48-.58z" fill="#ffffff" fill-opacity="1"></path><path class="cls-2" id="path15" d="M51 55.17a22.8 22.8 0 0 1-13.46 4.33c-10.88 0-20.16-7.07-22.34-17.5a4.51 4.51 0 0 0 4.18-3.49h5.1v-1.89H19.4A4.49 4.49 0 0 0 15.22 33a23 23 0 0 1 35.4-13.42L51.76 18a25 25 0 0 0-38.68 15.44 4.48 4.48 0 0 0 0 8.13A25 25 0 0 0 37.54 61.5a24.77 24.77 0 0 0 14.58-4.71zM12.5 37.5a2.5 2.5 0 0 1 2.2-2.5h.3a2.5 2.5 0 1 1-2.49 2.5z" fill="#ffffff" fill-opacity="1"></path><path class="cls-2" id="path17" d="M14.86 35h-.15z" fill="#ffffff" fill-opacity="1"></path><path class="cls-2" id="path19" d="M60 42a4.5 4.5 0 1 0-4.4-5.43h-5.2V24.2h2.7a4.5 4.5 0 1 0 .08-1.61l-3.68-.05a.83.83 0 0 0-1 .88v13.12h-7.69v1.85h7.69v13.08a1 1 0 0 0 1 1h3.14a4.5 4.5 0 1 0 0-1.77h-2.18l-.05-12.32h5.19A4.51 4.51 0 0 0 60 42zm0-7a2.5 2.5 0 1 1-2.5 2.5A2.5 2.5 0 0 1 60 35zm-2.5-13.91a2.49 2.49 0 1 1-2.5 2.47 2.49 2.49 0 0 1 2.51-2.49zM57 49a2.5 2.5 0 1 1-2.47 2.81v-.3a2.33 2.33 0 0 1 .06-.53A2.51 2.51 0 0 1 57 49z" fill="#ffffff" fill-opacity="1"></path></g></g></svg></g></g><g opacity="1"><g id="4a7aa5bf-e098-4d97-af61-f6930ec491b2" transform="translate(0 0)"><svg x="765" y="810" height="90" id="svg15" width="90" version="1.1"><defs id="defs4"></defs><g id="Reference" fill-opacity="1" transform="scale(1.2)"><path id="Orange_Light_BG" d="M0 0h75v75H0z" fill="#d86613" data-name="Orange Light BG"></path><g id="Product_Icon" fill="#ffffff" data-name="Product Icon"><path class="cls-2" id="path9" d="M60.5 62.5H48.18a1 1 0 0 1-.9-.57L29.86 25.5h-7.37a1 1 0 0 1-1-1v-11a1 1 0 0 1 1-1h15.4a1 1 0 0 1 .9.57L56.13 49.5h4.37a1 1 0 0 1 1 1v11a1 1 0 0 1-1 1zm-11.69-2H59.5v-9h-4a1 1 0 0 1-.9-.57L37.26 14.5H23.5v9h7a1 1 0 0 1 .9.57z" fill="#ffffff" fill-opacity="1"></path><path class="cls-2" id="path11" d="M27.48 62.5h-13a1 1 0 0 1-.85-.47 1 1 0 0 1-.05-1l13.6-28.41a1 1 0 0 1 .9-.57 1 1 0 0 1 .9.56L35.49 46a1 1 0 0 1 0 .87l-7.1 15a1 1 0 0 1-.91.63zm-11.4-2h10.77l6.63-14-5.39-11.15z" fill="#ffffff" fill-opacity="1"></path></g></g></svg></g></g><g opacity="1"><g id="fb1703c3-3ea9-4880-b8ef-11c5888b2b41" transform="translate(0 0)"><svg x="0" y="968" height="90" id="svg15" width="90" version="1.1"><defs id="defs4"></defs><g id="Reference" fill-opacity="1" transform="scale(1.2)"><path id="Orange_Light_BG" d="M0 0h75v75H0z" fill="#d86613" data-name="Orange Light BG"></path><g id="Product_Icon" fill="#ffffff" data-name="Product Icon"><path class="cls-2" id="path9" d="M60.5 62.5H48.18a1 1 0 0 1-.9-.57L29.86 25.5h-7.37a1 1 0 0 1-1-1v-11a1 1 0 0 1 1-1h15.4a1 1 0 0 1 .9.57L56.13 49.5h4.37a1 1 0 0 1 1 1v11a1 1 0 0 1-1 1zm-11.69-2H59.5v-9h-4a1 1 0 0 1-.9-.57L37.26 14.5H23.5v9h7a1 1 0 0 1 .9.57z" fill="#ffffff" fill-opacity="1"></path><path class="cls-2" id="path11" d="M27.48 62.5h-13a1 1 0 0 1-.85-.47 1 1 0 0 1-.05-1l13.6-28.41a1 1 0 0 1 .9-.57 1 1 0 0 1 .9.56L35.49 46a1 1 0 0 1 0 .87l-7.1 15a1 1 0 0 1-.91.63zm-11.4-2h10.77l6.63-14-5.39-11.15z" fill="#ffffff" fill-opacity="1"></path></g></g></svg></g></g><g opacity="1"><g id="e0d27dc2-8b9e-4cb6-bc02-0ca301862363" transform="translate(0 0)"><svg x="315" y="968" height="90" id="svg15" width="90" version="1.1"><defs id="defs4"></defs><g id="Reference" fill-opacity="1" transform="scale(1.2)"><path id="Orange_Light_BG" d="M0 0h75v75H0z" fill="#d86613" data-name="Orange Light BG"></path><g id="Product_Icon" fill="#ffffff" data-name="Product Icon"><path class="cls-2" id="path9" d="M60.5 62.5H48.18a1 1 0 0 1-.9-.57L29.86 25.5h-7.37a1 1 0 0 1-1-1v-11a1 1 0 0 1 1-1h15.4a1 1 0 0 1 .9.57L56.13 49.5h4.37a1 1 0 0 1 1 1v11a1 1 0 0 1-1 1zm-11.69-2H59.5v-9h-4a1 1 0 0 1-.9-.57L37.26 14.5H23.5v9h7a1 1 0 0 1 .9.57z" fill="#ffffff" fill-opacity="1"></path><path class="cls-2" id="path11" d="M27.48 62.5h-13a1 1 0 0 1-.85-.47 1 1 0 0 1-.05-1l13.6-28.41a1 1 0 0 1 .9-.57 1 1 0 0 1 .9.56L35.49 46a1 1 0 0 1 0 .87l-7.1 15a1 1 0 0 1-.91.63zm-11.4-2h10.77l6.63-14-5.39-11.15z" fill="#ffffff" fill-opacity="1"></path></g></g></svg></g></g><g opacity="1"><g id="f23a73a7-fe53-439a-9e41-c6c016e02fe2" transform="translate(0 0)"><svg x="585" y="968" height="90" id="svg15" width="90" version="1.1"><defs id="defs4"></defs><g id="Reference" fill-opacity="1" transform="scale(1.2)"><path id="Orange_Light_BG" d="M0 0h75v75H0z" fill="#d86613" data-name="Orange Light BG"></path><g id="Product_Icon" fill="#ffffff" data-name="Product Icon"><path class="cls-2" id="path9" d="M60.5 62.5H48.18a1 1 0 0 1-.9-.57L29.86 25.5h-7.37a1 1 0 0 1-1-1v-11a1 1 0 0 1 1-1h15.4a1 1 0 0 1 .9.57L56.13 49.5h4.37a1 1 0 0 1 1 1v11a1 1 0 0 1-1 1zm-11.69-2H59.5v-9h-4a1 1 0 0 1-.9-.57L37.26 14.5H23.5v9h7a1 1 0 0 1 .9.57z" fill="#ffffff" fill-opacity="1"></path><path class="cls-2" id="path11" d="M27.48 62.5h-13a1 1 0 0 1-.85-.47 1 1 0 0 1-.05-1l13.6-28.41a1 1 0 0 1 .9-.57 1 1 0 0 1 .9.56L35.49 46a1 1 0 0 1 0 .87l-7.1 15a1 1 0 0 1-.91.63zm-11.4-2h10.77l6.63-14-5.39-11.15z" fill="#ffffff" fill-opacity="1"></path></g></g></svg></g></g><g opacity="1"><g id="b383299c-0f27-4fb0-9bbe-cb7f0662bdf1" transform="translate(0 0)"><svg x="315" y="1193" height="90" id="svg15" width="90" version="1.1"><defs id="defs4"></defs><g id="Reference" fill-opacity="1" transform="scale(1.2)"><path id="Orange_Light_BG" d="M0 0h75v75H0z" fill="#d86613" data-name="Orange Light BG"></path><g id="Product_Icon" fill="#ffffff" data-name="Product Icon"><path class="cls-2" id="path9" d="M60.5 62.5H48.18a1 1 0 0 1-.9-.57L29.86 25.5h-7.37a1 1 0 0 1-1-1v-11a1 1 0 0 1 1-1h15.4a1 1 0 0 1 .9.57L56.13 49.5h4.37a1 1 0 0 1 1 1v11a1 1 0 0 1-1 1zm-11.69-2H59.5v-9h-4a1 1 0 0 1-.9-.57L37.26 14.5H23.5v9h7a1 1 0 0 1 .9.57z" fill="#ffffff" fill-opacity="1"></path><path class="cls-2" id="path11" d="M27.48 62.5h-13a1 1 0 0 1-.85-.47 1 1 0 0 1-.05-1l13.6-28.41a1 1 0 0 1 .9-.57 1 1 0 0 1 .9.56L35.49 46a1 1 0 0 1 0 .87l-7.1 15a1 1 0 0 1-.91.63zm-11.4-2h10.77l6.63-14-5.39-11.15z" fill="#ffffff" fill-opacity="1"></path></g></g></svg></g></g></g><g pointer-events="auto"></g><g pointer-events="auto"><g opacity="1"><g id="459ab258-a7e0-411c-9fe1-4562e5d23b6e" transform="translate(0 0)"><svg x="45" y="585" overflow="visible"><g transform="scale(2.729575167846423) "><circle cx="0" cy="0" fill="#000000" r="23"></circle><svg width="25" height="32" x="-12.5" y="-16" style="fill: rgb(255, 255, 255);"><svg xmlns="http://www.w3.org/2000/svg" width="25" height="32" viewBox="0 0 25 32"><path d="M20.179 10.661l.286-3.125H4.679l.839 9.536h10.929l-.393 4.071-3.518.946-3.5-.946-.232-2.5H5.679l.393 4.964 6.464 1.786h.071v-.018l6.411-1.768.893-9.714h-11.5l-.268-3.232h12.036zM0 2.286h25.143l-2.286 25.679-10.321 2.893-10.25-2.893z"></path></svg></svg></g></svg></g></g><g opacity="1"><g id="c218edb1-1383-42cb-aad7-ba8441b84a19" transform="translate(0 0)"><svg x="810" y="1238" overflow="visible"><g transform="scale(1.3975424859373686) "><circle cx="0" cy="0" fill="transparent" r="40"></circle><svg width="100" height="100" x="-50" y="-50" style=""><svg id="Layer_1" data-name="Layer 1" xmlns="http://www.w3.org/2000/svg" width="100" height="100" viewBox="0 0 100 100"><g><path fill="#b7ca9d" d="M86.24 65.43L50.01 60.1l-36.25 5.33L49.99 91l36.25-25.57z"></path><path fill="#4b612c" d="M21.02 64.81l6.12 1.83 14.39-22.07L27.14 22.5l-6.12 2.35v39.96z"></path><path fill="#759c3e" d="M48.82 62.91l-21.68 3.81V22.5l21.68 4.88v35.53z"></path><path fill="#4b612c" d="M39.15 70.33L30.7 67.8V13.23L39.15 9l25.04 32.28-25.04 29.05z"></path><path fill="#759c3e" d="M68.11 63.61L39.15 70.4V9l28.96 11.29v43.32z"></path><path fill="#4b612c" d="M49.99 78.28L13.76 65.43v7.46L49.99 91V78.28z"></path><path fill="#759c3e" d="M86.24 72.88L49.99 91V78.28l36.25-12.85v7.45z"></path><path fill="#b7ca9d" d="M76.06 53.08h-8.79l-25.04 1.7L50 73.59l26.06-20.51z"></path><path fill="#4b612c" d="M42.23 71.26L50 73.59l-.01-17.97-7.76-.84v16.48z"></path><path fill="#759c3e" d="M76.06 53.08l-26.07 2.54.01 17.97 26.06-7.85V53.08z"></path></g></svg></svg></g></svg></g></g><g opacity="1"><g id="087eace8-5977-4833-a4b1-071a0e951d83" transform="translate(0 0)"><svg x="810" y="585" overflow="visible"><g transform="scale(1.3975424859373686) "><circle cx="0" cy="0" fill="transparent" r="40"></circle><svg width="100" height="100" x="-50" y="-50" style=""><svg id="Layer_1" data-name="Layer 1" xmlns="http://www.w3.org/2000/svg" width="100" height="100" viewBox="0 0 100 100"><g><path fill="#fad791" d="M84.1 55.15l-16.56-.68-10.73.68 17.71 24.08 9.58-24.08z"></path><path fill="#624a1e" d="M84.1 45.18l-16.56.68-10.73-.68L74.52 21.1l9.58 24.08zM15.9 45.15l16.56.71 10.73-.68-17.71-23.96-9.58 23.93z"></path><path fill="#fad791" d="M15.9 55.15l16.56-.68 10.73.68-17.71 24.1-9.58-24.1z"></path><path fill="#d9a741" d="M74.52 44.22l9.58.96V25.89l-9.58-4.79v23.12z"></path><path fill="#876929" d="M56.81 25.88l17.71-4.78v23.12l-17.71.96v-19.3z"></path><path fill="#d9a741" d="M50 23.08l19.18 6.27v9.54L50 35.51V23.08z"></path><path fill="#624a1e" d="M41.36 37.08l8.78-1.55 19.04 3.36-8.51.93-19.31-2.74z"></path><path fill="#876929" d="M25.48 44.22l-9.58.93V25.8l9.58-4.72v23.14z"></path><path fill="#d9a741" d="M43.19 25.88l-17.71-4.8v23.14l17.71.96v-19.3z"></path><path fill="#876929" d="M50 23.08l-19.18 6.27v9.54L50 35.51V23.08z"></path><path fill="#624a1e" d="M58.64 37.08l-8.78-1.55-19.04 3.36 8.51.93 19.31-2.74z"></path><path fill="#d9a741" d="M74.52 56.11l9.58-.96v19.29l-9.58 4.79V56.11z"></path><path fill="#876929" d="M56.81 74.45l17.71 4.78V56.11l-17.71-.96v19.3z"></path><path fill="#d9a741" d="M50 77.25l19.18-6.27v-9.54L50 64.82v12.43z"></path><path fill="#fad791" d="M41.36 63.25l8.78 1.54 19.04-3.35-8.51-.93-19.31 2.74z"></path><path fill="#876929" d="M25.48 56.11l-9.58-.96v19.29l9.58 4.81V56.11z"></path><path fill="#d9a741" d="M43.19 74.45l-17.71 4.8V56.11l17.71-.96v19.3z"></path><path fill="#876929" d="M50 77.25l-19.18-6.27v-9.54L50 64.82v12.43z"></path><path fill="#fad791" d="M58.64 63.25l-8.78 1.54-19.04-3.35 8.51-.93 19.31 2.74z"></path><path fill="#876929" d="M39.8 86.06l10.2 5.1 5.66-2.83 4.54-74.39L50 8.84l-10.2 5.1v72.12z"></path><path fill="#d9a741" d="M60.2 86.06L50 91.16V8.84l10.2 5.1v72.12z"></path></g></svg></svg></g></svg></g></g><g opacity="1"><g id="23bc5445-6683-45bb-be62-045a4b586ef8" transform="translate(0 0)"><svg x="810" y="338" overflow="visible"><g transform="scale(2.729575167846423) "><circle cx="0" cy="0" fill="#000000" r="23"></circle><svg width="25" height="32" x="-12.5" y="-16" style="fill: rgb(255, 255, 255);"><svg xmlns="http://www.w3.org/2000/svg" width="25" height="32" viewBox="0 0 25 32"><path d="M20.179 10.661l.286-3.125H4.679l.839 9.536h10.929l-.393 4.071-3.518.946-3.5-.946-.232-2.5H5.679l.393 4.964 6.464 1.786h.071v-.018l6.411-1.768.893-9.714h-11.5l-.268-3.232h12.036zM0 2.286h25.143l-2.286 25.679-10.321 2.893-10.25-2.893z"></path></svg></svg></g></svg></g></g><g opacity="1"><g id="83dbe4b3-39ee-47ae-a5bb-e5879aa5ac94" transform="translate(0 0)"><svg x="360" y="158" overflow="visible"><g transform="scale(1.3975424859373686) "><circle cx="0" cy="0" fill="transparent" r="40"></circle><svg width="100" height="100" x="-50" y="-50" style=""><svg id="Layer_1" data-name="Layer 1" xmlns="http://www.w3.org/2000/svg" width="100" height="100" viewBox="0 0 100 100"><g><g fill="#4b612c"><circle cx="66.9" cy="30.64" r="13"></circle><path d="M66.9 45.14a14.5 14.5 0 1 1 14.5-14.5 14.52 14.52 0 0 1-14.5 14.5zm0-26a11.5 11.5 0 1 0 11.5 11.5 11.51 11.51 0 0 0-11.5-11.5z"></path></g><g><circle cx="66.9" cy="28.16" r="13" fill="#fff"></circle><path d="M66.9 42.66a14.5 14.5 0 1 1 14.5-14.5 14.52 14.52 0 0 1-14.5 14.5zm0-26a11.5 11.5 0 1 0 11.5 11.5 11.51 11.51 0 0 0-11.5-11.5z" fill="#4f4f4f"></path></g><path fill="#4f4f4f" d="M60.88 27.66h7.01v3h-7.01z"></path><path fill="#4f4f4f" d="M66.4 19.1h3v11.56h-3z"></path><path fill="#4b612c" d="M27.7 50.04h10.71v26.44H27.7zM44.62 55.19h10.71v21.29H44.62z"></path><path transform="rotate(90 49.975 83.505)" fill="#4b612c" d="M47.14 59.28h5.66v48.45h-5.66z"></path><path d="M61.54 46.86v29.62h10.71V46.86a11.2 11.2 0 0 1-10.71 0z" fill="#4b612c"></path><path fill="#759c3e" d="M27.7 47.56h10.71V74H27.7zM44.62 52.71h10.71V74H44.62z"></path><path transform="rotate(90 49.975 81.025)" fill="#759c3e" d="M47.14 56.8h5.66v48.45h-5.66z"></path><path d="M61.54 44.38V74h10.71V44.38a11.2 11.2 0 0 1-10.71 0z" fill="#759c3e"></path></g></svg></svg></g></svg></g></g><g opacity="1"><g id="2b7e6ca4-da88-4579-9eb8-9802debd6093" transform="translate(0 0)"><svg x="360" y="360" overflow="visible"><g transform="scale(1.2074767078498865) "><circle cx="0" cy="0" fill="transparent" r="37.5"></circle><svg width="75" height="75" x="-37.5" y="-37.5" style=""><svg xmlns="http://www.w3.org/2000/svg" viewBox="0 0 75 75"><defs><linearGradient id="OrangeGradient" x1="-1788.05" y1="692.67" x2="-1788.05" y2="842.67" gradientTransform="rotate(-135 -1026.5 24.5)" gradientUnits="userSpaceOnUse"><stop offset="0" stop-color="#c8511b"></stop><stop offset="1" stop-color="#f90"></stop></linearGradient></defs><g id="Reference"><path id="Orange_Gradient" data-name="Orange Gradient" fill="url(#OrangeGradient)" d="M0 0h75v75H0z"></path><g id="Icon_Test" data-name="Icon Test" fill="#fff"><path d="M60.5 62.5H48.18a1 1 0 0 1-.9-.57L29.86 25.5h-7.37a1 1 0 0 1-1-1v-11a1 1 0 0 1 1-1h15.4a1 1 0 0 1 .9.57L56.13 49.5h4.37a1 1 0 0 1 1 1v11a1 1 0 0 1-1 1zm-11.69-2H59.5v-9h-4a1 1 0 0 1-.9-.57L37.26 14.5H23.5v9h7a1 1 0 0 1 .9.57z"></path><path d="M27.48 62.5h-13a1 1 0 0 1-.85-.47 1 1 0 0 1-.05-1l13.6-28.41a1 1 0 0 1 .9-.57 1 1 0 0 1 .9.56L35.49 46a1 1 0 0 1 0 .87l-7.1 15a1 1 0 0 1-.91.63zm-11.4-2h10.77l6.63-14-5.39-11.15z"></path></g></g></svg></svg></g></svg></g></g><g opacity="1"><g id="7b5a8444-49fb-46d3-9696-1860b4e12e89" transform="translate(0 0)"><svg x="45" y="360" overflow="visible"><g transform="scale(2.729575167846423) "><circle cx="0" cy="0" fill="#000000" r="23"></circle><svg width="27" height="32" x="-13.5" y="-16" style="fill: rgb(255, 255, 255);"><svg xmlns="http://www.w3.org/2000/svg" width="27" height="32" viewBox="0 0 27 32"><path d="M9.143 22.857c0-1.268-1.018-2.286-2.286-2.286s-2.286 1.018-2.286 2.286 1.018 2.286 2.286 2.286 2.286-1.018 2.286-2.286zm6.268 1.679A10.82 10.82 0 0 0 5.179 14.304c-.161-.018-.321.054-.429.161s-.179.25-.179.411v2.286c0 .304.232.554.536.571 3.661.268 6.607 3.214 6.875 6.875a.569.569 0 0 0 .571.536h2.286c.161 0 .304-.071.411-.179s.179-.268.161-.429zm6.857.018C21.964 15.268 14.447 7.75 5.161 7.447a.437.437 0 0 0-.411.161.582.582 0 0 0-.179.411v2.286c0 .304.25.554.554.571 7.411.268 13.446 6.304 13.714 13.714a.584.584 0 0 0 .571.554h2.286a.578.578 0 0 0 .411-.179.454.454 0 0 0 .161-.411zm5.161-17.125v17.143a5.145 5.145 0 0 1-5.143 5.143H5.143A5.145 5.145 0 0 1 0 24.572V7.429a5.145 5.145 0 0 1 5.143-5.143h17.143a5.145 5.145 0 0 1 5.143 5.143z"></path></svg></svg></g></svg></g></g></g><g pointer-events="auto"><g opacity="1"><g id="2cb650ed-3169-41a2-b9ee-f1e53d013cc9"><svg x="428" y="563" overflow="visible"><text stroke="#ffffff" stroke-width="4" font-family="Open Sans" y="36.5" font-size="25pt" fill="#f5b720" font-weight="bold" transform="" xml:space="preserve"><tspan x="8" dy="0">publish-to-social</tspan></text><text font-family="Open Sans" y="36.5" font-size="25pt" fill="#f5b720" font-weight="bold" transform="" xml:space="preserve"><tspan x="8" dy="0">publish-to-social</tspan></text></svg></g></g><g opacity="1"><g id="30c33d9d-4067-4163-b64a-65f43e1f21d7"><svg x="562" y="1058" overflow="visible"><text stroke="#ffffff" stroke-width="4" font-family="Open Sans" y="36.5" font-size="25pt" fill="#f5b720" font-weight="bold" transform="" xml:space="preserve"><tspan x="8" dy="0">twitter</tspan></text><text font-family="Open Sans" y="36.5" font-size="25pt" fill="#f5b720" font-weight="bold" transform="" xml:space="preserve"><tspan x="8" dy="0">twitter</tspan></text></svg></g></g><g opacity="1"><g id="b2df3c7a-a6e6-4b7f-984c-e91dea5978a0"><svg x="292" y="1058" overflow="visible"><text stroke="#ffffff" stroke-width="4" font-family="Open Sans" y="36.5" font-size="25pt" fill="#f5b720" font-weight="bold" transform="" xml:space="preserve"><tspan x="8" dy="0">dev.to</tspan></text><text font-family="Open Sans" y="36.5" font-size="25pt" fill="#f5b720" font-weight="bold" transform="" xml:space="preserve"><tspan x="8" dy="0">dev.to</tspan></text></svg></g></g><g opacity="1"><g id="9f2fc0bf-d30e-481d-87f4-c28260f9edc4"><svg x="-23" y="1058" overflow="visible"><text stroke="#ffffff" stroke-width="4" font-family="Open Sans" y="36.5" font-size="25pt" fill="#f5b720" font-weight="bold" transform="" xml:space="preserve"><tspan x="8" dy="0">&lt;other social&gt;</tspan></text><text font-family="Open Sans" y="36.5" font-size="25pt" fill="#f5b720" font-weight="bold" transform="" xml:space="preserve"><tspan x="8" dy="0">&lt;other social&gt;</tspan></text></svg></g></g><g opacity="1"><g id="63093097-59b6-483d-891c-eb48a866cbf9" transform="translate(0 0)"><svg x="-22" y="653" overflow="visible"><text stroke="#ffffff" stroke-width="4" font-family="Open Sans" y="30.799999999999997" font-size="20pt" fill="#f5b720" font-weight="bold" transform="" xml:space="preserve"><tspan x="8" dy="0">https://a.l3x.in/</tspan></text><text font-family="Open Sans" y="30.799999999999997" font-size="20pt" fill="#f5b720" font-weight="bold" transform="" xml:space="preserve"><tspan x="8" dy="0">https://a.l3x.in/</tspan></text></svg></g></g><g opacity="1"><g id="f5931dc8-41fb-4f40-8bde-8926eeef9453"><svg x="405" y="743" overflow="visible"><text stroke="#ffffff" stroke-width="4" font-family="Open Sans" y="36.5" font-size="25pt" fill="#f5b720" font-weight="bold" transform="" xml:space="preserve"><tspan x="8" dy="0">SNS Topic</tspan></text><text font-family="Open Sans" y="36.5" font-size="25pt" fill="#f5b720" font-weight="bold" transform="" xml:space="preserve"><tspan x="8" dy="0">SNS Topic</tspan></text></svg></g></g><g opacity="1"><g id="5a02af19-dcee-417d-872d-016b2fe5850e"><svg x="292" y="1283" overflow="visible"><text stroke="#ffffff" stroke-width="4" font-family="Open Sans" y="36.5" font-size="25pt" fill="#f5b720" font-weight="bold" transform="" xml:space="preserve"><tspan x="8" dy="0">Lambda</tspan><tspan x="8" dy="1.1em">Destination</tspan></text><text font-family="Open Sans" y="36.5" font-size="25pt" fill="#f5b720" font-weight="bold" transform="" xml:space="preserve"><tspan x="8" dy="0">Lambda</tspan><tspan x="8" dy="1.1em">Destination</tspan></text></svg></g></g><g opacity="1"><g id="ebc8d7b3-c982-40bf-8f70-fc5a4687620b"><svg x="878" y="833" overflow="visible"><text stroke="#ffffff" stroke-width="4" font-family="Open Sans" y="36.5" font-size="25pt" fill="#f5b720" font-weight="bold" transform="" xml:space="preserve"><tspan x="8" dy="0">Api Lambda</tspan></text><text font-family="Open Sans" y="36.5" font-size="25pt" fill="#f5b720" font-weight="bold" transform="" xml:space="preserve"><tspan x="8" dy="0">Api Lambda</tspan></text></svg></g></g><g opacity="1"><g id="7836cc1e-c538-429c-a0a3-71dc2b0cecd2"><svg x="855" y="563" overflow="visible"><text stroke="#ffffff" stroke-width="4" font-family="Open Sans" y="36.5" font-size="25pt" fill="#f5b720" font-weight="bold" transform="" xml:space="preserve"><tspan x="8" dy="0">Api Gateway</tspan></text><text font-family="Open Sans" y="36.5" font-size="25pt" fill="#f5b720" font-weight="bold" transform="" xml:space="preserve"><tspan x="8" dy="0">Api Gateway</tspan></text></svg></g></g><g opacity="1"><g id="f09892f2-8262-44d0-ae78-3dc1e9971b09"><svg x="878" y="360" overflow="visible"><text stroke="#ffffff" stroke-width="4" font-family="Open Sans" y="36.5" font-size="25pt" fill="#f5b720" font-weight="bold" transform="" xml:space="preserve"><tspan x="8" dy="0">Web client</tspan></text><text font-family="Open Sans" y="36.5" font-size="25pt" fill="#f5b720" font-weight="bold" transform="" xml:space="preserve"><tspan x="8" dy="0">Web client</tspan></text></svg></g></g><g opacity="1"><g id="7cc5db31-98ec-413c-8bb2-81e73f20c56c"><svg x="874" y="1238" overflow="visible"><text stroke="#ffffff" stroke-width="4" font-family="Open Sans" y="36.5" font-size="25pt" fill="#f5b720" font-weight="bold" transform="" xml:space="preserve"><tspan x="8" dy="0">CloudWatch</tspan><tspan x="8" dy="1.1em">Logs Group</tspan></text><text font-family="Open Sans" y="36.5" font-size="25pt" fill="#f5b720" font-weight="bold" transform="" xml:space="preserve"><tspan x="8" dy="0">CloudWatch</tspan><tspan x="8" dy="1.1em">Logs Group</tspan></text></svg></g></g><g opacity="1"><g id="0390b2f5-099f-4b30-9f4f-440039a56033" transform="translate(0 0)"><svg x="428" y="135" overflow="visible"><text stroke="#ffffff" stroke-width="4" font-family="Open Sans" y="36.5" font-size="25pt" fill="#f5b720" font-weight="bold" transform="" xml:space="preserve"><tspan x="8" dy="0">CRON event</tspan><tspan x="8" dy="1.1em">(06:00 UTC)</tspan></text><text font-family="Open Sans" y="36.5" font-size="25pt" fill="#f5b720" font-weight="bold" transform="" xml:space="preserve"><tspan x="8" dy="0">CRON event</tspan><tspan x="8" dy="1.1em">(06:00 UTC)</tspan></text></svg></g></g><g opacity="1"><g id="672aa0e4-79aa-4fe6-9998-af79618fa333" transform="translate(0 0)"><svg x="-22" y="428" overflow="visible"><text stroke="#ffffff" stroke-width="4" font-family="Open Sans" y="30.799999999999997" font-size="20pt" fill="#f5b720" font-weight="bold" transform="" xml:space="preserve"><tspan x="8" dy="0">https://a.l3x.in/feed.xml</tspan></text><text font-family="Open Sans" y="30.799999999999997" font-size="20pt" fill="#f5b720" font-weight="bold" transform="" xml:space="preserve"><tspan x="8" dy="0">https://a.l3x.in/feed.xml</tspan></text></svg></g></g><g opacity="1"><g id="4a2c0acb-9a38-4437-ad68-390128f528eb"><svg x="428" y="338" overflow="visible"><text stroke="#ffffff" stroke-width="4" font-family="Open Sans" y="36.5" font-size="25pt" fill="#f5b720" font-weight="bold" transform="" xml:space="preserve"><tspan x="8" dy="0">feed-poller</tspan></text><text font-family="Open Sans" y="36.5" font-size="25pt" fill="#f5b720" font-weight="bold" transform="" xml:space="preserve"><tspan x="8" dy="0">feed-poller</tspan></text></svg></g></g><g opacity="1"><g id="fe81eff0-a3f9-4a0b-9478-480a509f35e1" transform="translate(0 0)"><svg x="833" y="405" overflow="visible"><text stroke="#ffffff" stroke-width="4" font-family="Open Sans" y="23.96" font-size="14pt" fill="#f5b720" font-weight="bold" transform="" xml:space="preserve"><tspan x="8" dy="0">https://a.l3x.in/social_report</tspan></text><text font-family="Open Sans" y="23.96" font-size="14pt" fill="#f5b720" font-weight="bold" transform="" xml:space="preserve"><tspan x="8" dy="0">https://a.l3x.in/social_report</tspan></text></svg></g></g></g><g></g></g></svg>